<?xml version="1.0" encoding="utf-8"?>
<!-- Generator: Adobe Illustrator 17.0.0, SVG Export Plug-In . SVG Version: 6.00 Build 0)  -->
<!DOCTYPE svg PUBLIC "-//W3C//DTD SVG 1.1//EN" "http://www.w3.org/Graphics/SVG/1.1/DTD/svg11.dtd">
<svg version="1.1" id="icons" xmlns="http://www.w3.org/2000/svg" xmlns:xlink="http://www.w3.org/1999/xlink" x="0px" y="0px"
	 width="35px" height="35px" viewBox="0 0 35 35" enable-background="new 0 0 35 35" xml:space="preserve">
<polygon points="26.491,16.911 32.277,16.911 32.277,18.84 26.491,18.84 26.491,22.697 20.063,17.876 26.491,13.054 "/>
<path d="M10.769,11.691c-3.416,0-6.185,2.769-6.185,6.185s2.769,6.185,6.185,6.185s6.185-2.769,6.185-6.185
	S14.185,11.691,10.769,11.691z M14.015,19.995c0.133,0.132,0.133,0.349,0,0.481l-0.721,0.722c-0.134,0.133-0.35,0.133-0.482,0
	l-2.042-2.042l-2.044,2.043c-0.132,0.133-0.35,0.133-0.481,0l-0.721-0.722c-0.134-0.132-0.134-0.349,0-0.481l2.043-2.044
	l-2.044-2.045c-0.134-0.132-0.134-0.348,0-0.481l0.721-0.722c0.133-0.132,0.351-0.132,0.481,0l2.045,2.045l2.044-2.043
	c0.132-0.133,0.348-0.133,0.482,0l0.721,0.722c0.133,0.133,0.133,0.35,0,0.481l-2.043,2.044L14.015,19.995z"/>
</svg>
