<?xml version="1.0" encoding="utf-8"?>
<!-- Generator: Adobe Illustrator 17.0.0, SVG Export Plug-In . SVG Version: 6.00 Build 0)  -->
<!DOCTYPE svg PUBLIC "-//W3C//DTD SVG 1.1//EN" "http://www.w3.org/Graphics/SVG/1.1/DTD/svg11.dtd">
<svg version="1.1" id="icons" xmlns="http://www.w3.org/2000/svg" xmlns:xlink="http://www.w3.org/1999/xlink" x="0px" y="0px"
	 width="35px" height="35px" viewBox="0 0 35 35" enable-background="new 0 0 35 35" xml:space="preserve">
<g id="repeat_1_">
	<path d="M23.006,27.652l-0.56-0.829c-0.308-0.455-0.281-1.017,0.06-1.248c0.342-0.232,1.295-0.927,1.532-1.132
		c2.323-2.01,3.073-4.542,3.05-6.843c-0.022-2.272-0.918-4.557-2.629-6.267c-1.711-1.711-4.065-2.632-6.369-2.632l0,0
		c-1.832-0.005-3.68,0.535-5.274,1.689c-3.875,2.801-4.87,8.123-2.286,12.143l2.002-1.447c0.221-0.16,0.399-0.068,0.394,0.208
		l-0.112,6.498c-0.005,0.274-0.224,0.433-0.486,0.351L6.12,26.217c-0.262-0.082-0.295-0.281-0.071-0.442l2.045-1.479l-0.04-0.06
		c-3.51-5.371-2.19-12.521,3.005-16.277c2.127-1.538,4.659-2.256,7.032-2.256s5.748,0.75,8.507,3.51
		c2.313,2.314,3.481,5.346,3.504,8.387c0.022,2.928-1.264,6.755-4.083,9.094c-0.321,0.267-1.489,1.136-1.831,1.367
		C23.845,28.291,23.313,28.107,23.006,27.652z"/>
</g>
</svg>
