<?xml version="1.0" encoding="utf-8"?>
<!-- Generator: Adobe Illustrator 17.0.0, SVG Export Plug-In . SVG Version: 6.00 Build 0)  -->
<!DOCTYPE svg PUBLIC "-//W3C//DTD SVG 1.1//EN" "http://www.w3.org/Graphics/SVG/1.1/DTD/svg11.dtd">
<svg version="1.1" id="icons" xmlns="http://www.w3.org/2000/svg" xmlns:xlink="http://www.w3.org/1999/xlink" x="0px" y="0px"
	 width="35px" height="35px" viewBox="0 0 35 35" enable-background="new 0 0 35 35" xml:space="preserve">
<g>
	<path d="M17.607,21.694h-6.932v-0.699c0.322-0.024,0.701-0.082,1.137-0.175s0.653-0.208,0.653-0.346
		c0-0.048-0.004-0.102-0.014-0.161c-0.009-0.06-0.034-0.141-0.076-0.242l-1.086-2.636H6.897c-0.101,0.245-0.213,0.531-0.334,0.86
		c-0.122,0.329-0.228,0.622-0.316,0.879c-0.113,0.335-0.18,0.577-0.201,0.727c-0.021,0.149-0.032,0.254-0.032,0.313
		c0,0.191,0.145,0.354,0.435,0.488c0.29,0.135,0.772,0.232,1.447,0.292v0.699H2.677v-0.699c0.197-0.012,0.42-0.044,0.668-0.095
		s0.444-0.121,0.587-0.21c0.245-0.144,0.453-0.32,0.623-0.529s0.312-0.457,0.426-0.744c0.693-1.68,1.388-3.362,2.085-5.049
		c0.696-1.686,1.466-3.545,2.309-5.577h1.793c1.172,2.882,2.089,5.159,2.753,6.833s1.229,3.061,1.695,4.16
		c0.078,0.18,0.176,0.343,0.296,0.489c0.12,0.146,0.29,0.285,0.511,0.417c0.167,0.096,0.361,0.167,0.583,0.215
		s0.421,0.078,0.601,0.09V21.694z M10.921,16.548l-1.842-4.6l-1.814,4.6H10.921z"/>
</g>
<g>
	<path d="M19.091,21.694l4.157-13.146h1.525l4.415,13.146h-1.632l-1.254-3.981h-4.535l-1.171,3.981H19.091z M22.184,16.296h3.672
		l-1.12-3.64c-0.347-1.118-0.601-2.027-0.762-2.727c-0.139,0.843-0.336,1.68-0.59,2.511L22.184,16.296z"/>
</g>
<path fill="none" stroke="#000000" stroke-miterlimit="10" d="M32.249,22.018c0.403,0.405,0.324,1.13-0.177,1.619l-7.699,7.528
	c-0.5,0.489-1.232,0.557-1.635,0.152l-2.552-2.568c-0.403-0.405-0.324-1.13,0.177-1.619l7.699-7.528
	c0.5-0.489,1.232-0.557,1.635-0.152L32.249,22.018z"/>
<polygon points="24.321,23.502 28.492,19 29.488,18.939 32.222,22.482 32.19,23.367 28.012,27.401 "/>
<line opacity="0.5" fill="none" stroke="#000000" stroke-linecap="round" stroke-linejoin="round" stroke-miterlimit="10" enable-background="new    " x1="16.574" y1="6.734" x2="19.617" y2="8.947"/>
<line opacity="0.5" fill="none" stroke="#000000" stroke-linecap="round" stroke-linejoin="round" stroke-miterlimit="10" enable-background="new    " x1="22.1" y1="2.654" x2="22.936" y2="6.431"/>
<line opacity="0.5" fill="none" stroke="#000000" stroke-linecap="round" stroke-linejoin="round" stroke-miterlimit="10" enable-background="new    " x1="26.739" y1="6.734" x2="28.797" y2="3.362"/>
<line opacity="0.5" fill="none" stroke="#000000" stroke-linecap="round" stroke-linejoin="round" stroke-miterlimit="10" enable-background="new    " x1="28.271" y1="10.261" x2="32.222" y2="8.947"/>
</svg>
