<?xml version="1.0" encoding="utf-8"?>
<!-- Generator: Adobe Illustrator 17.0.0, SVG Export Plug-In . SVG Version: 6.00 Build 0)  -->
<!DOCTYPE svg PUBLIC "-//W3C//DTD SVG 1.1//EN" "http://www.w3.org/Graphics/SVG/1.1/DTD/svg11.dtd">
<svg version="1.1" id="icons" xmlns="http://www.w3.org/2000/svg" xmlns:xlink="http://www.w3.org/1999/xlink" x="0px" y="0px"
	 width="35px" height="35px" viewBox="0 0 35 35" enable-background="new 0 0 35 35" xml:space="preserve">
<g>
	<path d="M8.71,6.022v2.664h3.079V6.022h0.831v6.366h-0.83V9.404H8.71v2.984H7.879V6.022H8.71z"/>
</g>
<path d="M27.17,22.268c0,0.23-0.187,0.417-0.417,0.417H7.587c-0.23,0-0.417-0.187-0.417-0.417v-1.667
	c0-0.23,0.187-0.417,0.417-0.417h19.166c0.23,0,0.417,0.187,0.417,0.417V22.268z"/>
<path d="M27.17,15.598c0-0.23-0.187-0.417-0.417-0.417H7.587c-0.23,0-0.417,0.187-0.417,0.417v1.667c0,0.23,0.187,0.417,0.417,0.417
	h19.166c0.23,0,0.417-0.187,0.417-0.417V15.598z"/>
<path d="M22.178,25.603c0-0.23-0.187-0.417-0.417-0.417H7.587c-0.23,0-0.417,0.187-0.417,0.417v1.667
	c0,0.23,0.187,0.417,0.417,0.417h14.174c0.23,0,0.417-0.187,0.417-0.417V25.603z"/>
<g>
	<g>
		<polyline fill="none" stroke="#000000" stroke-miterlimit="10" points="31.774,29.136 31.774,31.136 29.774,31.136 		"/>
		<line fill="none" stroke="#000000" stroke-miterlimit="10" stroke-dasharray="4,2" x1="28" y1="31.5" x2="7" y2="31.5"/>
		<polyline fill="none" stroke="#000000" stroke-miterlimit="10" points="6.342,31.136 4.342,31.136 4.342,29.136 		"/>
		<line fill="none" stroke="#000000" stroke-miterlimit="10" stroke-dasharray="4,2" x1="4.5" y1="27" x2="4.5" y2="6"/>
		<polyline fill="none" stroke="#000000" stroke-miterlimit="10" points="4.342,5.333 4.342,3.333 6.342,3.333 		"/>
		<line fill="none" stroke="#000000" stroke-miterlimit="10" stroke-dasharray="4,2" x1="8" y1="3.5" x2="29" y2="3.5"/>
		<polyline fill="none" stroke="#000000" stroke-miterlimit="10" points="29.774,3.333 31.774,3.333 31.774,5.333 		"/>
		<line fill="none" stroke="#000000" stroke-miterlimit="10" stroke-dasharray="4,2" x1="31.5" y1="7" x2="31.5" y2="28"/>
	</g>
</g>
</svg>
