<?xml version="1.0" encoding="utf-8"?>
<!-- Generator: Adobe Illustrator 17.0.0, SVG Export Plug-In . SVG Version: 6.00 Build 0)  -->
<!DOCTYPE svg PUBLIC "-//W3C//DTD SVG 1.1//EN" "http://www.w3.org/Graphics/SVG/1.1/DTD/svg11.dtd">
<svg version="1.1" id="icons" xmlns="http://www.w3.org/2000/svg" xmlns:xlink="http://www.w3.org/1999/xlink" x="0px" y="0px"
	 width="35px" height="35px" viewBox="0 0 35 35" enable-background="new 0 0 35 35" xml:space="preserve">
<g>
	<g>
		<path d="M20.556,26.128l2.202-0.229c0.063,0.498,0.249,0.893,0.558,1.184c0.31,0.291,0.666,0.437,1.07,0.437
			c0.461,0,0.852-0.188,1.172-0.562c0.32-0.374,0.479-0.939,0.479-1.694c0-0.708-0.158-1.239-0.476-1.593s-0.73-0.531-1.239-0.531
			c-0.634,0-1.203,0.281-1.707,0.842l-1.793-0.26l1.133-6.001h5.843v2.069H23.63l-0.346,1.958c0.493-0.246,0.996-0.37,1.51-0.37
			c0.98,0,1.811,0.357,2.493,1.07c0.681,0.713,1.022,1.639,1.022,2.776c0,0.948-0.275,1.796-0.826,2.54
			c-0.75,1.018-1.791,1.525-3.122,1.525c-1.064,0-1.932-0.285-2.604-0.857C21.088,27.86,20.687,27.093,20.556,26.128z"/>
	</g>
	<g>
		<path d="M7.519,4.585v5.577h6.447V4.585h1.74v13.329h-1.74v-6.249H7.519v6.249h-1.74V4.585H7.519z"/>
	</g>
</g>
</svg>
