<?xml version="1.0" encoding="utf-8"?>
<!-- Generator: Adobe Illustrator 17.0.0, SVG Export Plug-In . SVG Version: 6.00 Build 0)  -->
<!DOCTYPE svg PUBLIC "-//W3C//DTD SVG 1.1//EN" "http://www.w3.org/Graphics/SVG/1.1/DTD/svg11.dtd">
<svg version="1.1" id="icons" xmlns="http://www.w3.org/2000/svg" xmlns:xlink="http://www.w3.org/1999/xlink" x="0px" y="0px"
	 width="35px" height="35px" viewBox="0 0 35 35" enable-background="new 0 0 35 35" xml:space="preserve">
<path d="M26.049,18.648c0,0.215-0.153,0.39-0.34,0.39H10.1c-0.187,0-0.34-0.175-0.34-0.39v-1.56c0-0.215,0.153-0.39,0.34-0.39h15.61
	c0.187,0,0.34,0.175,0.34,0.39L26.049,18.648L26.049,18.648z"/>
<path d="M26.049,12.407c0-0.215-0.153-0.39-0.34-0.39H10.1c-0.187,0-0.34,0.175-0.34,0.39v1.56c0,0.215,0.153,0.39,0.34,0.39h15.61
	c0.187,0,0.34-0.175,0.34-0.39L26.049,12.407L26.049,12.407z"/>
<path d="M21.983,21.768c0-0.215-0.153-0.39-0.34-0.39H10.1c-0.187,0-0.34,0.175-0.34,0.39v1.56c0,0.215,0.153,0.39,0.34,0.39h11.544
	c0.187,0,0.34-0.175,0.34-0.39v-1.56H21.983z"/>
<line opacity="0.5" fill="none" stroke="#000000" stroke-linecap="round" stroke-linejoin="round" stroke-miterlimit="10" enable-background="new    " x1="3.931" y1="8.864" x2="6.906" y2="10.853"/>
<line opacity="0.5" fill="none" stroke="#000000" stroke-linecap="round" stroke-linejoin="round" stroke-miterlimit="10" enable-background="new    " x1="2.308" y1="17.548" x2="5.555" y2="17.543"/>
<line opacity="0.5" fill="none" stroke="#000000" stroke-linecap="round" stroke-linejoin="round" stroke-miterlimit="10" enable-background="new    " x1="29.365" y1="17.548" x2="32.612" y2="17.543"/>
<line opacity="0.5" fill="none" stroke="#000000" stroke-linecap="round" stroke-linejoin="round" stroke-miterlimit="10" enable-background="new    " x1="10.238" y1="4.228" x2="11.885" y2="8.196"/>
<line opacity="0.5" fill="none" stroke="#000000" stroke-linecap="round" stroke-linejoin="round" stroke-miterlimit="10" enable-background="new    " x1="17.5" y1="3" x2="17.5" y2="7"/>
<line opacity="0.5" fill="none" stroke="#000000" stroke-linecap="round" stroke-linejoin="round" stroke-miterlimit="10" enable-background="new    " x1="31.576" y1="8.864" x2="28.602" y2="10.853"/>
<line opacity="0.5" fill="none" stroke="#000000" stroke-linecap="round" stroke-linejoin="round" stroke-miterlimit="10" enable-background="new    " x1="25.27" y1="4.228" x2="23.617" y2="8.196"/>
<line opacity="0.5" fill="none" stroke="#000000" stroke-linecap="round" stroke-linejoin="round" stroke-miterlimit="10" enable-background="new    " x1="3.931" y1="27.126" x2="6.906" y2="25.137"/>
<line opacity="0.5" fill="none" stroke="#000000" stroke-linecap="round" stroke-linejoin="round" stroke-miterlimit="10" enable-background="new    " x1="10.238" y1="31.762" x2="11.885" y2="27.455"/>
<line opacity="0.5" fill="none" stroke="#000000" stroke-linecap="round" stroke-linejoin="round" stroke-miterlimit="10" enable-background="new    " x1="17.5" y1="33" x2="17.5" y2="29"/>
<line opacity="0.5" fill="none" stroke="#000000" stroke-linecap="round" stroke-linejoin="round" stroke-miterlimit="10" enable-background="new    " x1="31.576" y1="27.126" x2="28.602" y2="25.137"/>
<line opacity="0.5" fill="none" stroke="#000000" stroke-linecap="round" stroke-linejoin="round" stroke-miterlimit="10" enable-background="new    " x1="25.27" y1="31.762" x2="23.617" y2="27.794"/>
</svg>
