<?xml version="1.0" encoding="utf-8"?>
<!-- Generator: Adobe Illustrator 17.0.0, SVG Export Plug-In . SVG Version: 6.00 Build 0)  -->
<!DOCTYPE svg PUBLIC "-//W3C//DTD SVG 1.1//EN" "http://www.w3.org/Graphics/SVG/1.1/DTD/svg11.dtd">
<svg version="1.1" id="icons" xmlns="http://www.w3.org/2000/svg" xmlns:xlink="http://www.w3.org/1999/xlink" x="0px" y="0px"
	 width="35px" height="35px" viewBox="0 0 35 35" enable-background="new 0 0 35 35" xml:space="preserve">
<g>
	<g>
		<path d="M31.076,30.41v2.053h-7.747c0.084-0.776,0.336-1.512,0.755-2.206s1.248-1.616,2.485-2.765
			c0.996-0.928,1.607-1.557,1.833-1.888c0.304-0.456,0.456-0.907,0.456-1.353c0-0.493-0.132-0.872-0.397-1.137
			s-0.63-0.396-1.097-0.396c-0.461,0-0.828,0.139-1.101,0.416c-0.272,0.278-0.43,0.739-0.472,1.385l-2.202-0.221
			c0.131-1.216,0.542-2.089,1.235-2.618c0.692-0.53,1.557-0.795,2.595-0.795c1.138,0,2.032,0.307,2.682,0.92
			c0.65,0.614,0.975,1.377,0.975,2.289c0,0.52-0.093,1.014-0.279,1.482c-0.186,0.47-0.481,0.961-0.885,1.475
			c-0.267,0.341-0.75,0.831-1.447,1.471s-1.139,1.064-1.325,1.274s-0.337,0.414-0.452,0.613L31.076,30.41L31.076,30.41z"/>
	</g>
	<g>
		<path d="M6.061,2.536v7.844h9.068V2.536h2.448v18.748h-2.448v-8.79H6.061v8.79H3.613V2.536H6.061z"/>
	</g>
</g>
</svg>
