<?xml version="1.0" encoding="utf-8"?>
<!-- Generator: Adobe Illustrator 17.0.0, SVG Export Plug-In . SVG Version: 6.00 Build 0)  -->
<!DOCTYPE svg PUBLIC "-//W3C//DTD SVG 1.1//EN" "http://www.w3.org/Graphics/SVG/1.1/DTD/svg11.dtd">
<svg version="1.1" id="icons" xmlns="http://www.w3.org/2000/svg" xmlns:xlink="http://www.w3.org/1999/xlink" x="0px" y="0px"
	 width="35px" height="35px" viewBox="0 0 35 35" enable-background="new 0 0 35 35" xml:space="preserve">
<g opacity="0.5">
	<path d="M8.685,6.729v2.818h3.258V6.729h0.879v6.736h-0.879v-3.158H8.685v3.158h-0.88V6.729H8.685z"/>
</g>
<path d="M27.045,23.34c0,0.229-0.187,0.417-0.417,0.417H7.472c-0.23,0-0.417-0.187-0.417-0.417v-1.667
	c0-0.229,0.187-0.417,0.417-0.417h19.156c0.229,0,0.417,0.187,0.417,0.417V23.34z"/>
<path d="M27.045,16.673c0-0.229-0.187-0.417-0.417-0.417H7.472c-0.23,0-0.417,0.187-0.417,0.417v1.667
	c0,0.229,0.187,0.417,0.417,0.417h19.156c0.229,0,0.417-0.187,0.417-0.417V16.673z"/>
<path d="M22.056,26.673c0-0.229-0.187-0.417-0.417-0.417H7.472c-0.23,0-0.417,0.187-0.417,0.417v1.667
	c0,0.229,0.187,0.417,0.417,0.417h14.167c0.229,0,0.417-0.187,0.417-0.417V26.673z"/>
</svg>
