<?xml version="1.0" encoding="utf-8"?>
<!-- Generator: Adobe Illustrator 17.0.0, SVG Export Plug-In . SVG Version: 6.00 Build 0)  -->
<!DOCTYPE svg PUBLIC "-//W3C//DTD SVG 1.1//EN" "http://www.w3.org/Graphics/SVG/1.1/DTD/svg11.dtd">
<svg version="1.1" id="icons" xmlns="http://www.w3.org/2000/svg" xmlns:xlink="http://www.w3.org/1999/xlink" x="0px" y="0px"
	 width="35px" height="35px" viewBox="0 0 35 35" enable-background="new 0 0 35 35" xml:space="preserve">
<g id="bold_2_">
	<path d="M21.501,16.5c0,0,4.46-1.26,4.46-5.16c0-3.91-3.54-6.34-6.54-6.34H8.461v1.43c2,0.471,2,0.78,2,2.29v16.55
		c0,1.131-1,1.79-2,1.95V29h10.92c3.1,0,7.852-1.81,7.852-6.12C27.232,17.88,21.501,16.5,21.501,16.5z M15.461,8c0,0,0.96,0,2.96,0
		s2.6,1.76,2.6,3.5c0,1.729-0.6,3.5-2.6,3.5s-2.96,0-2.96,0S15.461,8,15.461,8z M18.451,26h-2.99v-8c0,0,0.43,0,2.96,0
		s3.67,1.995,3.67,4.345C22.091,24.685,20.671,26,18.451,26z"/>
</g>
</svg>
