<?xml version="1.0" encoding="utf-8"?>
<!-- Generator: Adobe Illustrator 17.0.0, SVG Export Plug-In . SVG Version: 6.00 Build 0)  -->
<!DOCTYPE svg PUBLIC "-//W3C//DTD SVG 1.1//EN" "http://www.w3.org/Graphics/SVG/1.1/DTD/svg11.dtd">
<svg version="1.1" id="icons" xmlns="http://www.w3.org/2000/svg" xmlns:xlink="http://www.w3.org/1999/xlink" x="0px" y="0px"
	 width="35px" height="35px" viewBox="0 0 35 35" enable-background="new 0 0 35 35" xml:space="preserve">
<g id="vector_x5F_path_x5F_square">
	<g>
		<path d="M31.083,8.653V4.167h-4.486v1.122H8.653V4.167H4.167v4.486h1.122v17.944H4.167v4.486h4.486v-1.122h17.944v1.122h4.486
			v-4.486h-1.122V8.653H31.083z M27.719,5.288h2.243v2.243h-2.243V5.288z M5.288,5.288h2.243v2.243H5.288V5.288z M7.531,29.962
			H5.288v-2.243h2.243V29.962z M29.962,29.962h-2.243v-2.243h2.243V29.962z M27.719,26.597h-1.122v1.122H8.653v-1.122H7.531V8.653
			h1.122V7.531h17.944v1.122h1.122V26.597z"/>
	</g>
	<polygon opacity="0.3" enable-background="new    " points="26.597,27.719 26.597,26.597 27.719,26.597 27.719,8.653 26.597,8.653 
		26.597,7.531 8.653,7.531 8.653,8.653 7.531,8.653 7.531,26.597 8.653,26.597 8.653,27.719 	"/>
</g>
</svg>
