<?xml version="1.0" encoding="utf-8"?>
<!-- Generator: Adobe Illustrator 17.0.0, SVG Export Plug-In . SVG Version: 6.00 Build 0)  -->
<!DOCTYPE svg PUBLIC "-//W3C//DTD SVG 1.1//EN" "http://www.w3.org/Graphics/SVG/1.1/DTD/svg11.dtd">
<svg version="1.1" id="icons" xmlns="http://www.w3.org/2000/svg" xmlns:xlink="http://www.w3.org/1999/xlink" x="0px" y="0px"
	 width="35px" height="35px" viewBox="0 0 35 35" enable-background="new 0 0 35 35" xml:space="preserve">
<path d="M31.372,26.672c0,0.318-0.259,0.577-0.577,0.577H10.018c-0.318,0-0.577-0.259-0.577-0.577v-2.308
	c0-0.318,0.259-0.577,0.577-0.577h20.776c0.318,0,0.577,0.259,0.577,0.577v2.308H31.372z"/>
<path d="M7.133,24.364c0-0.318-0.259-0.577-0.577-0.577H4.247c-0.318,0-0.577,0.259-0.577,0.577v2.308
	c0,0.318,0.259,0.577,0.577,0.577h2.308c0.318,0,0.577-0.259,0.577-0.577L7.133,24.364L7.133,24.364z"/>
<path d="M31.372,16.284c0-0.318-0.259-0.577-0.577-0.577H10.018c-0.318,0-0.577,0.259-0.577,0.577v2.308
	c0,0.318,0.259,0.577,0.577,0.577h20.776c0.318,0,0.577-0.259,0.577-0.577v-2.308H31.372z"/>
<path d="M7.133,16.284c0-0.318-0.259-0.577-0.577-0.577H4.247c-0.318,0-0.577,0.259-0.577,0.577v2.308
	c0,0.318,0.259,0.577,0.577,0.577h2.308c0.318,0,0.577-0.259,0.577-0.577L7.133,16.284L7.133,16.284z"/>
<path d="M31.372,8.204c0-0.318-0.259-0.577-0.577-0.577H10.018c-0.318,0-0.577,0.259-0.577,0.577v2.308
	c0,0.318,0.259,0.577,0.577,0.577h20.776c0.318,0,0.577-0.259,0.577-0.577V8.204H31.372z"/>
<path d="M7.133,8.204c0-0.318-0.259-0.577-0.577-0.577H4.247c-0.318,0-0.577,0.259-0.577,0.577v2.308
	c0,0.318,0.259,0.577,0.577,0.577h2.308c0.318,0,0.577-0.259,0.577-0.577L7.133,8.204L7.133,8.204z"/>
</svg>
