<?xml version="1.0" encoding="utf-8"?>
<!-- Generator: Adobe Illustrator 17.0.0, SVG Export Plug-In . SVG Version: 6.00 Build 0)  -->
<!DOCTYPE svg PUBLIC "-//W3C//DTD SVG 1.1//EN" "http://www.w3.org/Graphics/SVG/1.1/DTD/svg11.dtd">
<svg version="1.1" id="icons" xmlns="http://www.w3.org/2000/svg" xmlns:xlink="http://www.w3.org/1999/xlink" x="0px" y="0px"
	 width="35px" height="35px" viewBox="0 0 35 35" enable-background="new 0 0 35 35" xml:space="preserve">
<path d="M30.894,16.137c0,0.293-0.237,0.531-0.531,0.531H18.684c-0.293,0-0.531-0.237-0.531-0.531v-2.123
	c0-0.293,0.237-0.531,0.531-0.531h11.679c0.293,0,0.531,0.237,0.531,0.531V16.137z"/>
<path d="M18.684,11.36h6.37c0.292,0,0.531-0.238,0.531-0.531V8.705c0-0.292-0.238-0.531-0.531-0.531h-6.37
	c-0.292,0-0.531,0.238-0.531,0.531v2.123C18.153,11.121,18.392,11.36,18.684,11.36z"/>
<path d="M18.684,21.977h8.494c0.292,0,0.531-0.238,0.531-0.531v-2.123c0-0.292-0.238-0.531-0.531-0.531h-8.494
	c-0.292,0-0.531,0.238-0.531,0.531v2.123C18.153,21.738,18.392,21.977,18.684,21.977z"/>
<path d="M32.487,24.1H18.684c-0.292,0-0.531,0.238-0.531,0.531v2.123c0,0.292,0.238,0.531,0.531,0.531h13.803
	c0.292,0,0.531-0.238,0.531-0.531v-2.123C33.018,24.339,32.779,24.1,32.487,24.1z"/>
<rect x="14.059" y="6.051" width="2.123" height="23.358"/>
<polygon points="7.501,16.468 3.053,16.468 3.053,17.95 7.501,17.95 7.501,20.915 12.442,17.209 7.501,13.503 "/>
</svg>
