<?xml version="1.0" encoding="utf-8"?>
<!-- Generator: Adobe Illustrator 17.0.0, SVG Export Plug-In . SVG Version: 6.00 Build 0)  -->
<!DOCTYPE svg PUBLIC "-//W3C//DTD SVG 1.1//EN" "http://www.w3.org/Graphics/SVG/1.1/DTD/svg11.dtd">
<svg version="1.1" id="icons" xmlns="http://www.w3.org/2000/svg" xmlns:xlink="http://www.w3.org/1999/xlink" x="0px" y="0px"
	 width="35px" height="35px" viewBox="0 0 35 35" enable-background="new 0 0 35 35" xml:space="preserve">
<g id="remove_x5F_2_1_">
	<path d="M21.441,16.934l5.649-5.648c0.221-0.222,0.221-0.585,0-0.806l-2.383-2.383c-0.221-0.221-0.583-0.221-0.805,0l-5.649,5.649
		L12.6,8.094c-0.222-0.221-0.584-0.221-0.805,0l-2.383,2.384c-0.222,0.22-0.222,0.582,0,0.806l5.652,5.651l-5.65,5.65
		c-0.22,0.22-0.22,0.583,0,0.805l2.383,2.383c0.222,0.22,0.586,0.22,0.806,0l5.649-5.649l5.646,5.646
		c0.221,0.221,0.585,0.221,0.806,0l2.384-2.384c0.22-0.22,0.22-0.583,0-0.806L21.441,16.934z"/>
</g>
</svg>
