<?xml version="1.0" encoding="utf-8"?>
<!-- Generator: Adobe Illustrator 17.0.0, SVG Export Plug-In . SVG Version: 6.00 Build 0)  -->
<!DOCTYPE svg PUBLIC "-//W3C//DTD SVG 1.1//EN" "http://www.w3.org/Graphics/SVG/1.1/DTD/svg11.dtd">
<svg version="1.1" id="icons" xmlns="http://www.w3.org/2000/svg" xmlns:xlink="http://www.w3.org/1999/xlink" x="0px" y="0px"
	 width="35px" height="35px" viewBox="0 0 35 35" enable-background="new 0 0 35 35" xml:space="preserve">
<path d="M19.005,17.876c0,3.416,2.769,6.185,6.185,6.185s6.185-2.769,6.185-6.185s-2.769-6.185-6.185-6.185
	S19.005,14.46,19.005,17.876z M23.986,17.952l-2.043-2.044c-0.133-0.132-0.133-0.348,0-0.481l0.721-0.722
	c0.134-0.133,0.35-0.133,0.482,0l2.044,2.043l2.045-2.045c0.131-0.132,0.348-0.132,0.481,0l0.721,0.722
	c0.134,0.133,0.134,0.35,0,0.481l-2.044,2.045l2.043,2.044c0.134,0.132,0.134,0.349,0,0.481l-0.721,0.722
	c-0.132,0.133-0.349,0.133-0.481,0l-2.044-2.043l-2.042,2.042c-0.132,0.133-0.349,0.133-0.482,0l-0.721-0.722
	c-0.133-0.132-0.133-0.349,0-0.481L23.986,17.952z"/>
<polygon points="9.902,16.911 4.116,16.911 4.116,18.84 9.902,18.84 9.902,22.697 16.33,17.876 9.902,13.054 "/>
</svg>
