<?xml version="1.0" encoding="utf-8"?>
<!-- Generator: Adobe Illustrator 17.1.0, SVG Export Plug-In . SVG Version: 6.00 Build 0)  -->
<!DOCTYPE svg PUBLIC "-//W3C//DTD SVG 1.1//EN" "http://www.w3.org/Graphics/SVG/1.1/DTD/svg11.dtd">
<svg version="1.1" id="icons" xmlns="http://www.w3.org/2000/svg" xmlns:xlink="http://www.w3.org/1999/xlink" x="0px" y="0px"
	 viewBox="0 0 35 35" enable-background="new 0 0 35 35" xml:space="preserve">
<path d="M23.5,7.3H11.7C9.2,7.3,7,9.5,7,12.1v11.5c0,2,1.3,3.5,3.1,4.1c0,0,0,0,0,0c0.5,0.2,1.7,0.2,1.7,0.2c0,0,11.8,0,11.8,0
	c0.6,0,1.2,0,1.6-0.2c0,0-0.1,0-0.1,0c1.7-0.6,2.9-2.1,2.9-4.1V12.1C28,9.5,26.1,7.3,23.5,7.3z"/>
<path fill="#FFFFFF" d="M23.1,12V7H11.9c0,1,0,5.1,0,5.1c0,0.4,0.2,0.8,0.5,1.1h0c0.3,0.3,0.7,0.5,1.1,0.5v0h8v0
	c0.4,0,0.8-0.2,1.1-0.5C22.9,12.8,23.1,12.5,23.1,12L23.1,12L23.1,12L23.1,12z M21.9,12.1L21.9,12.1c0,0.1,0,0.2-0.1,0.3
	c-0.1,0.1-0.2,0.1-0.3,0.1l0,0h0l0,0h-2.2l0,0l0,0l0,0c-0.1,0-0.2,0-0.3-0.1c-0.1-0.1-0.1-0.2-0.1-0.3l0,0V8.4l0,0
	c0-0.1,0-0.2,0.1-0.3v0C19,8,19.1,8,19.3,8c0,0,2,0,2.2,0v0l0,0v0c0.1,0,0.2,0,0.3,0.1c0.1,0.1,0.1,0.2,0.1,0.3h0V12.1z"/>
<path fill="#FFFFFF" d="M19.2,18.8C19.3,18.7,19.3,18.7,19.2,18.8l0.1-1.6h-3.2v1.5c0,0,0,0,0,0c0,0.1,0.1,0.2,0.2,0.2l0.8,0.5
	c0.2,0.1,0.4,0.3,0.5,0.5c0,0,0,0.1,0.1,0.1c0,0,0-0.1,0.1-0.1c0.1-0.2,0.3-0.4,0.5-0.5l0.8-0.5C19.1,18.9,19.2,18.8,19.2,18.8
	 M19.8,20.1c0.2-0.2,0.4-0.4,0.6-0.6c0.1-0.2,0.3-0.5,0.3-0.7v-2v-0.9h-5.9v0.9v2c0,0.3,0.1,0.5,0.3,0.7c0.2,0.2,0.3,0.4,0.6,0.6
	l0.8,0.5c0,0,0,0,0.1,0c0,0,0,0-0.1,0l-0.8,0.5c-0.2,0.2-0.4,0.4-0.6,0.6c-0.1,0.2-0.3,0.5-0.3,0.7v2v0.9h5.9v-0.9v-2
	c0-0.3-0.1-0.5-0.3-0.7c-0.2-0.2-0.3-0.4-0.6-0.6L19,20.7c0,0,0,0-0.1,0c0,0,0,0,0.1,0L19.8,20.1z M18.5,21.4l0.8,0.5
	c0.1,0.1,0.2,0.2,0.3,0.3c0.1,0.1,0.1,0.2,0.1,0.3v2h-0.5h-3.2h-0.5v-2c0,0,0-0.1,0.1-0.3c0.1-0.1,0.2-0.3,0.3-0.3l0.8-0.5
	c0.3-0.2,0.5-0.4,0.5-0.8c0-0.3-0.2-0.6-0.5-0.8L16,19.3c-0.1-0.1-0.2-0.2-0.3-0.3c-0.1-0.1-0.1-0.2-0.1-0.3v-2h4.2v2
	c0,0,0,0.1-0.1,0.3c-0.1,0.1-0.2,0.3-0.3,0.3l-0.8,0.5C18.2,20,18,20.3,18,20.6C18,21,18.2,21.2,18.5,21.4"/>
</svg>
