<?xml version="1.0" encoding="utf-8"?>
<!-- Generator: Adobe Illustrator 17.0.0, SVG Export Plug-In . SVG Version: 6.00 Build 0)  -->
<!DOCTYPE svg PUBLIC "-//W3C//DTD SVG 1.1//EN" "http://www.w3.org/Graphics/SVG/1.1/DTD/svg11.dtd">
<svg version="1.1" id="icons" xmlns="http://www.w3.org/2000/svg" xmlns:xlink="http://www.w3.org/1999/xlink" x="0px" y="0px"
	 width="35px" height="35px" viewBox="0 0 35 35" enable-background="new 0 0 35 35" xml:space="preserve">
<g>
	<g>
		<path d="M22.212,28.178l2.139-0.26c0.068,0.546,0.252,0.963,0.551,1.251s0.661,0.433,1.085,0.433c0.456,0,0.84-0.173,1.152-0.52
			c0.312-0.346,0.468-0.812,0.468-1.399c0-0.556-0.149-0.996-0.448-1.321s-0.664-0.488-1.093-0.488
			c-0.283,0-0.622,0.056-1.015,0.166l0.244-1.802c0.598,0.016,1.054-0.113,1.369-0.389s0.472-0.642,0.472-1.098
			c0-0.388-0.115-0.697-0.346-0.928c-0.231-0.23-0.538-0.347-0.92-0.347c-0.377,0-0.7,0.132-0.967,0.394
			c-0.268,0.263-0.43,0.646-0.488,1.148l-2.037-0.346c0.141-0.697,0.355-1.255,0.641-1.672s0.685-0.744,1.196-0.982
			c0.511-0.239,1.084-0.358,1.718-0.358c1.085,0,1.956,0.346,2.611,1.038c0.54,0.566,0.81,1.206,0.81,1.919
			c0,1.013-0.553,1.819-1.66,2.423c0.661,0.142,1.189,0.459,1.585,0.951c0.396,0.493,0.594,1.088,0.594,1.785
			c0,1.013-0.37,1.875-1.109,2.588c-0.74,0.713-1.66,1.069-2.761,1.069c-1.043,0-1.909-0.3-2.595-0.9
			C22.721,29.933,22.323,29.148,22.212,28.178z"/>
	</g>
	<g>
		<path d="M6.458,3.285v7.018h8.113V3.285h2.19v16.773h-2.19v-7.864H6.458v7.864h-2.19V3.285H6.458z"/>
	</g>
</g>
</svg>
