<?xml version="1.0" encoding="utf-8"?>
<!-- Generator: Adobe Illustrator 17.0.0, SVG Export Plug-In . SVG Version: 6.00 Build 0)  -->
<!DOCTYPE svg PUBLIC "-//W3C//DTD SVG 1.1//EN" "http://www.w3.org/Graphics/SVG/1.1/DTD/svg11.dtd">
<svg version="1.1" id="icons" xmlns="http://www.w3.org/2000/svg" xmlns:xlink="http://www.w3.org/1999/xlink" x="0px" y="0px"
	 width="35px" height="35px" viewBox="0 0 35 35" enable-background="new 0 0 35 35" xml:space="preserve">
<g>
	<g>
		<path d="M27.475,19.467l-2.139,0.235c-0.052-0.44-0.188-0.766-0.409-0.975c-0.22-0.21-0.506-0.315-0.857-0.315
			c-0.467,0-0.861,0.21-1.184,0.63c-0.323,0.419-0.526,1.292-0.609,2.619c0.55-0.65,1.234-0.976,2.052-0.976
			c0.923,0,1.713,0.352,2.372,1.054c0.658,0.703,0.987,1.61,0.987,2.722c0,1.18-0.346,2.126-1.038,2.839
			c-0.692,0.713-1.581,1.069-2.666,1.069c-1.164,0-2.121-0.452-2.871-1.356s-1.125-2.387-1.125-4.447
			c0-2.113,0.391-3.637,1.172-4.569c0.781-0.934,1.796-1.4,3.044-1.4c0.875,0,1.601,0.245,2.174,0.735
			C26.952,17.821,27.318,18.533,27.475,19.467z M22.465,24.288c0,0.718,0.165,1.272,0.496,1.663c0.33,0.391,0.708,0.586,1.132,0.586
			c0.409,0,0.75-0.16,1.022-0.479c0.272-0.32,0.409-0.845,0.409-1.573c0-0.75-0.147-1.299-0.44-1.647
			c-0.294-0.349-0.661-0.523-1.101-0.523c-0.425,0-0.784,0.167-1.078,0.499C22.612,23.146,22.465,23.638,22.465,24.288z"/>
	</g>
	<g>
		<path d="M8.821,5.146v4.957h5.73V5.146h1.547v11.848h-1.547v-5.555h-5.73v5.555H7.274V5.146H8.821z"/>
	</g>
</g>
</svg>
