<?xml version="1.0" encoding="utf-8"?>
<!-- Generator: Adobe Illustrator 17.0.0, SVG Export Plug-In . SVG Version: 6.00 Build 0)  -->
<!DOCTYPE svg PUBLIC "-//W3C//DTD SVG 1.1//EN" "http://www.w3.org/Graphics/SVG/1.1/DTD/svg11.dtd">
<svg version="1.1" id="icons" xmlns="http://www.w3.org/2000/svg" xmlns:xlink="http://www.w3.org/1999/xlink" x="0px" y="0px"
	 width="576px" height="719.667px" viewBox="0 0 576 719.667" enable-background="new 0 0 576 719.667" xml:space="preserve">
<rect x="54" y="439" fill="#B1F0FF" width="35" height="35"/>
<rect x="102" y="439" fill="#B1F0FF" width="35" height="35"/>
<rect x="150" y="247" fill="#B1F0FF" width="35" height="35"/>
<rect x="198" y="247" fill="#B1F0FF" width="35" height="35"/>
<g id="text_x5F_strike">
	<path d="M218.25,255.366v8h8v2h-8v8c0,1,2,1,3,1c0,1,0,1,0,1h-10c0,0,0,0,0-1c1,0,3,0,3-1v-8h-8v-2h8v-8h-4c-1.771,0-3,1-3.004,3
		c-0.996,0-0.996,0-0.996,0v-5h20v5c0,0,0,0-0.996,0c-0.004-2-1.233-3-3.004-3H218.25z"/>
</g>
<g id="text_x5F_underline">
	<polygon points="158.25,274.866 158.25,275.866 178.25,275.866 178.25,274.866 178.25,273.866 158.25,273.866 	"/>
	<path d="M158.25,251.866v5c0,0,0,0,0.996,0c0.004-2,1.233-3,3.004-3h4v16c0,1-2,1-3,1c0,1,0,1,0,1h10c0,0,0,0,0-1c-1,0-3,0-3-1v-16
		h4c1.77,0,3,1,3.004,3c0.996,0,0.996,0,0.996,0v-5H158.25z"/>
</g>
<rect x="54" y="55" fill="#B1F0FF" width="35" height="35"/>
<rect x="294" y="439" fill="#B1F0FF" width="35" height="35"/>
<rect x="342" y="439" fill="#B1F0FF" width="35" height="35"/>
<rect x="390" y="439" fill="#B1F0FF" width="35" height="35"/>
<rect x="438" y="439" fill="#B1F0FF" width="35" height="35"/>
<g id="justify_2_">
	<path fill-rule="evenodd" clip-rule="evenodd" d="M444.5,457.938c0-0.275,0.225-0.5,0.5-0.5h23c0.275,0,0.5,0.225,0.5,0.5v2
		c0,0.275-0.225,0.5-0.5,0.5h-23c-0.275,0-0.5-0.225-0.5-0.5V457.938z M444.5,453.938c0,0.275,0.225,0.5,0.5,0.5h23
		c0.275,0,0.5-0.225,0.5-0.5v-2c0-0.275-0.225-0.5-0.5-0.5h-23c-0.275,0-0.5,0.225-0.5,0.5V453.938z M444.5,447.938
		c0,0.275,0.225,0.5,0.5,0.5h23c0.275,0,0.5-0.225,0.5-0.5v-2c0-0.275-0.225-0.5-0.5-0.5h-23c-0.275,0-0.5,0.225-0.5,0.5V447.938z
		 M444.5,465.938c0,0.275,0.225,0.5,0.5,0.5h23c0.275,0,0.5-0.225,0.5-0.5v-2c0-0.275-0.225-0.5-0.5-0.5h-23
		c-0.275,0-0.5,0.225-0.5,0.5V465.938z"/>
</g>
<g id="align_x5F_right_2_">
	<path fill-rule="evenodd" clip-rule="evenodd" d="M402.513,457.938c0-0.275,0.225-0.5,0.5-0.5H420c0.275,0,0.5,0.225,0.5,0.5v2
		c0,0.275-0.225,0.5-0.5,0.5h-16.987c-0.275,0-0.5-0.225-0.5-0.5V457.938z M398.513,453.938c0,0.275,0.225,0.5,0.5,0.5H420
		c0.275,0,0.5-0.225,0.5-0.5v-2c0-0.275-0.225-0.5-0.5-0.5h-20.987c-0.275,0-0.5,0.225-0.5,0.5V453.938z M406.513,447.938
		c0,0.275,0.225,0.5,0.5,0.5H420c0.275,0,0.5-0.225,0.5-0.5v-2c0-0.275-0.225-0.5-0.5-0.5h-12.987c-0.275,0-0.5,0.225-0.5,0.5
		V447.938z M396.5,465.938c0,0.275,0.225,0.5,0.5,0.5h23c0.275,0,0.5-0.225,0.5-0.5v-2c0-0.275-0.225-0.5-0.5-0.5h-23
		c-0.275,0-0.5,0.225-0.5,0.5V465.938z"/>
</g>
<g id="align_x5F_center_2_">
	<path fill-rule="evenodd" clip-rule="evenodd" d="M352.5,457.875c0-0.275,0.225-0.5,0.5-0.5h15c0.275,0,0.5,0.225,0.5,0.5v2
		c0,0.275-0.225,0.5-0.5,0.5h-15c-0.275,0-0.5-0.225-0.5-0.5V457.875z M348.5,453.875c0,0.275,0.225,0.5,0.5,0.5h23
		c0.275,0,0.5-0.225,0.5-0.5v-2c0-0.275-0.225-0.5-0.5-0.5h-23c-0.275,0-0.5,0.225-0.5,0.5V453.875z M352.5,447.875
		c0,0.275,0.225,0.5,0.5,0.5h15c0.275,0,0.5-0.225,0.5-0.5v-2c0-0.275-0.225-0.5-0.5-0.5h-15c-0.275,0-0.5,0.225-0.5,0.5V447.875z
		 M348.5,465.875c0,0.275,0.225,0.5,0.5,0.5h23c0.275,0,0.5-0.225,0.5-0.5v-2c0-0.275-0.225-0.5-0.5-0.5h-23
		c-0.275,0-0.5,0.225-0.5,0.5V465.875z"/>
</g>
<g id="align_x5F_left_2_">
	<path fill-rule="evenodd" clip-rule="evenodd" d="M318.487,459.938c0,0.275-0.225,0.5-0.5,0.5H301c-0.275,0-0.5-0.225-0.5-0.5v-2
		c0-0.275,0.225-0.5,0.5-0.5h16.987c0.275,0,0.5,0.225,0.5,0.5V459.938z M322.487,451.938c0-0.275-0.225-0.5-0.5-0.5H301
		c-0.275,0-0.5,0.225-0.5,0.5v2c0,0.275,0.225,0.5,0.5,0.5h20.987c0.275,0,0.5-0.225,0.5-0.5V451.938z M314.487,445.938
		c0-0.275-0.225-0.5-0.5-0.5H301c-0.275,0-0.5,0.225-0.5,0.5v2c0,0.275,0.225,0.5,0.5,0.5h12.987c0.275,0,0.5-0.225,0.5-0.5V445.938
		z M324.5,463.938c0-0.275-0.225-0.5-0.5-0.5h-23c-0.275,0-0.5,0.225-0.5,0.5v2c0,0.275,0.225,0.5,0.5,0.5h23
		c0.275,0,0.5-0.225,0.5-0.5V463.938z"/>
</g>
<rect x="54" y="247" fill="#B1F0FF" width="35" height="35"/>
<rect x="102" y="247" fill="#B1F0FF" width="35" height="35"/>
<g id="bold_2_">
	<path d="M75.501,263.5c0,0,4.46-1.26,4.46-5.16c0-3.91-3.54-6.34-6.54-6.34h-10.96v1.43c2,0.471,2,0.78,2,2.29v16.55
		c0,1.131-1,1.79-2,1.95V276h10.92c3.1,0,7.852-1.81,7.852-6.12C81.232,264.88,75.501,263.5,75.501,263.5z M69.461,255
		c0,0,0.96,0,2.96,0s2.601,1.76,2.601,3.5c0,1.729-0.601,3.5-2.601,3.5s-2.96,0-2.96,0V255z M72.451,273h-2.99v-8c0,0,0.43,0,2.96,0
		c2.53,0,3.67,1.995,3.67,4.345C76.091,271.685,74.671,273,72.451,273z"/>
</g>
<g id="italic_2_">
	<path d="M126.52,253.144L126.497,252h-4.718h-3.307v1.144c2,0.538,1.807,0.743,1.503,2.468l-3.192,16.822
		c-0.229,1.293-1.311,2.244-3.311,2.423V276h9v-1.144c-1-0.179-1.978-1.13-1.749-2.423l2.835-16.822
		C123.863,253.887,124.139,253.682,126.52,253.144z"/>
</g>
<path fill-rule="evenodd" clip-rule="evenodd" d="M85.372,465.672c0,0.318-0.259,0.577-0.577,0.577H64.018
	c-0.318,0-0.577-0.259-0.577-0.577v-2.308c0-0.318,0.259-0.577,0.577-0.577h20.776c0.318,0,0.577,0.259,0.577,0.577V465.672z"/>
<path fill-rule="evenodd" clip-rule="evenodd" d="M61.133,463.364c0-0.318-0.259-0.577-0.577-0.577h-2.308
	c-0.318,0-0.577,0.259-0.577,0.577v2.308c0,0.318,0.259,0.577,0.577,0.577h2.308c0.318,0,0.577-0.259,0.577-0.577V463.364z"/>
<path fill-rule="evenodd" clip-rule="evenodd" d="M85.372,455.284c0-0.318-0.259-0.577-0.577-0.577H64.018
	c-0.318,0-0.577,0.259-0.577,0.577v2.308c0,0.318,0.259,0.577,0.577,0.577h20.776c0.318,0,0.577-0.259,0.577-0.577V455.284z"/>
<path fill-rule="evenodd" clip-rule="evenodd" d="M61.133,455.284c0-0.318-0.259-0.577-0.577-0.577h-2.308
	c-0.318,0-0.577,0.259-0.577,0.577v2.308c0,0.318,0.259,0.577,0.577,0.577h2.308c0.318,0,0.577-0.259,0.577-0.577V455.284z"/>
<path fill-rule="evenodd" clip-rule="evenodd" d="M85.372,447.204c0-0.318-0.259-0.577-0.577-0.577H64.018
	c-0.318,0-0.577,0.259-0.577,0.577v2.308c0,0.318,0.259,0.577,0.577,0.577h20.776c0.318,0,0.577-0.259,0.577-0.577V447.204z"/>
<path fill-rule="evenodd" clip-rule="evenodd" d="M61.133,447.204c0-0.318-0.259-0.577-0.577-0.577h-2.308
	c-0.318,0-0.577,0.259-0.577,0.577v2.308c0,0.318,0.259,0.577,0.577,0.577h2.308c0.318,0,0.577-0.259,0.577-0.577V447.204z"/>
<path fill-rule="evenodd" clip-rule="evenodd" d="M133.527,465.483c0,0.318-0.259,0.577-0.577,0.577h-20.776
	c-0.318,0-0.577-0.259-0.577-0.577v-2.308c0-0.318,0.259-0.577,0.577-0.577h20.776c0.318,0,0.577,0.259,0.577,0.577V465.483z"/>
<path fill-rule="evenodd" clip-rule="evenodd" d="M133.527,455.095c0-0.318-0.259-0.577-0.577-0.577h-20.776
	c-0.318,0-0.577,0.259-0.577,0.577v2.308c0,0.318,0.259,0.577,0.577,0.577h20.776c0.318,0,0.577-0.259,0.577-0.577V455.095z"/>
<path fill-rule="evenodd" clip-rule="evenodd" d="M133.527,447.015c0-0.318-0.259-0.577-0.577-0.577h-20.776
	c-0.318,0-0.577,0.259-0.577,0.577v2.308c0,0.318,0.259,0.577,0.577,0.577h20.776c0.318,0,0.577-0.259,0.577-0.577V447.015z"/>
<g>
	<path fill="none" stroke="#000000" stroke-width="2.5" stroke-miterlimit="10" d="M71.608,76.847l-6.218,5.368
		c-1.057,0.912-2.653,0.795-3.565-0.261l-1.652-1.913c-0.912-1.057-0.795-2.653,0.261-3.565l8.609-7.433
		c1.057-0.912,2.653-0.795,3.565,0.261l1.239,1.435"/>
	<path fill="none" stroke="#000000" stroke-width="2.5" stroke-miterlimit="10" d="M72.392,66.153l6.218-5.368
		c1.057-0.912,2.653-0.795,3.565,0.261l1.652,1.913c0.912,1.057,0.795,2.653-0.261,3.565l-8.609,7.433
		c-1.057,0.912-2.653,0.795-3.565-0.261l-1.239-1.435"/>
</g>
<rect x="102" y="55" fill="#B1F0FF" width="35" height="35"/>
<g>
	<rect x="54" y="151" fill="#B1F0FF" width="35" height="35"/>
</g>
<rect x="342" y="151" fill="#B1F0FF" width="35" height="35"/>
<rect x="54" y="535" fill="#B1F0FF" width="35" height="35"/>
<rect x="102" y="535" fill="#B1F0FF" width="35" height="35"/>
<rect x="150" y="535" fill="#B1F0FF" width="35" height="35"/>
<rect x="198" y="535" fill="#B1F0FF" width="35" height="35"/>
<rect x="246" y="535" fill="#B1F0FF" width="35" height="35"/>
<rect x="294" y="535" fill="#B1F0FF" width="35" height="35"/>
<rect x="246" y="247" fill="#B1F0FF" width="35" height="35"/>
<rect x="294" y="247" fill="#B1F0FF" width="35" height="35"/>
<rect x="342" y="247" fill="#B1F0FF" width="35" height="35"/>
<g id="XMLID_6_" opacity="0.5">
	<path d="M272.296,272.095v1.27h-8c0,0,0-0.682,0-1.27c1.438,0,1.922-1.48,1.533-2.534c-0.283-0.773-1.58-4.258-1.58-4.258h-7.5
		c0,0-1.101,2.791-1.762,4.505c-0.66,1.714,0.887,2.287,2.309,2.287c0,0.802,0,1.27,0,1.27h-7v-1.27c0,0,1.078-0.46,1.608-0.988
		c0.53-0.528,0.991-1.438,0.991-1.438l7.663-19.304h1.785l7.384,19.139c0,0,0.385,0.967,1.151,1.773
		C271.646,272.085,272.296,272.095,272.296,272.095z M263.778,263.366l-2.224-6.073l-0.876-2.687l-3.428,8.76H263.778z"/>
</g>
<g id="XMLID_8_" opacity="0.5">
	<path d="M318.769,271.553v1.27h-8c0,0,0-0.682,0-1.27c1.438,0,1.922-1.48,1.533-2.534c-0.283-0.773-1.58-4.258-1.58-4.258h-7.5
		c0,0-1.102,2.791-1.762,4.505c-0.66,1.714,0.887,2.287,2.309,2.287c0,0.802,0,1.27,0,1.27h-7v-1.27c0,0,1.078-0.46,1.608-0.988
		s0.991-1.438,0.991-1.438l7.663-19.304h1.785l7.384,19.139c0,0,0.385,0.967,1.151,1.773
		C318.12,271.542,318.769,271.553,318.769,271.553z M310.251,262.823l-2.224-6.073l-0.876-2.687l-3.428,8.76H310.251z"/>
</g>
<rect x="198" y="343" fill="#B1F0FF" width="35" height="35"/>
<rect x="246" y="343" fill="#B1F0FF" width="35" height="35"/>
<rect x="102" y="343" fill="#B1F0FF" width="35" height="35"/>
<rect x="294" y="343" fill="#B1F0FF" width="35" height="35"/>
<rect x="342" y="343" fill="#B1F0FF" width="35" height="35"/>
<g id="repeat_1_">
	<path d="M221.006,370.652l-0.561-0.829c-0.308-0.455-0.281-1.017,0.061-1.248c0.342-0.232,1.295-0.927,1.532-1.132
		c2.323-2.01,3.073-4.541,3.05-6.843c-0.022-2.272-0.918-4.557-2.629-6.267c-1.711-1.711-4.065-2.632-6.369-2.632l0,0
		c-1.832-0.005-3.68,0.535-5.274,1.689c-3.875,2.801-4.87,8.123-2.286,12.143l2.002-1.447c0.221-0.16,0.399-0.068,0.395,0.208
		l-0.112,6.498c-0.005,0.274-0.224,0.433-0.486,0.351l-6.208-1.926c-0.262-0.082-0.295-0.281-0.071-0.442l2.045-1.479l-0.04-0.06
		c-3.51-5.371-2.19-12.521,3.005-16.277c2.127-1.538,4.659-2.256,7.032-2.256s5.748,0.75,8.507,3.51
		c2.314,2.314,3.482,5.346,3.504,8.387c0.022,2.928-1.264,6.755-4.083,9.094c-0.321,0.267-1.489,1.136-1.831,1.367
		C221.845,371.291,221.313,371.107,221.006,370.652z"/>
</g>
<g id="repeat_2_">
	<path d="M259.494,370.652l0.561-0.829c0.308-0.455,0.281-1.017-0.061-1.248c-0.342-0.232-1.295-0.927-1.532-1.132
		c-2.323-2.01-3.073-4.541-3.05-6.843c0.022-2.272,0.918-4.557,2.629-6.267c1.711-1.711,4.065-2.632,6.369-2.632l0,0
		c1.832-0.005,3.68,0.535,5.274,1.689c3.875,2.801,4.87,8.123,2.286,12.143l-2.002-1.447c-0.221-0.16-0.399-0.068-0.395,0.208
		l0.112,6.498c0.005,0.274,0.224,0.433,0.486,0.351l6.208-1.926c0.262-0.082,0.295-0.281,0.071-0.442l-2.045-1.479l0.04-0.06
		c3.51-5.371,2.19-12.521-3.005-16.277c-2.127-1.538-4.659-2.256-7.032-2.256c-2.373,0-5.748,0.75-8.507,3.51
		c-2.313,2.314-3.482,5.346-3.504,8.387c-0.022,2.928,1.264,6.755,4.083,9.094c0.321,0.267,1.489,1.136,1.831,1.367
		C258.655,371.291,259.187,371.107,259.494,370.652z"/>
</g>
<g id="remove_x5F_2_1_">
	<path d="M315.441,359.934l5.648-5.648c0.221-0.222,0.221-0.585,0-0.806l-2.383-2.383c-0.221-0.221-0.583-0.221-0.805,0l-5.65,5.649
		l-5.653-5.652c-0.222-0.221-0.584-0.221-0.805,0l-2.383,2.384c-0.222,0.22-0.222,0.582,0,0.806l5.652,5.651l-5.65,5.65
		c-0.22,0.22-0.22,0.583,0,0.805l2.383,2.383c0.222,0.22,0.586,0.22,0.806,0l5.65-5.65l5.646,5.647c0.221,0.221,0.585,0.221,0.806,0
		l2.384-2.384c0.22-0.22,0.22-0.583,0-0.806L315.441,359.934z"/>
</g>
<rect x="150" y="439" fill="#B1F0FF" width="35" height="35"/>
<path d="M180.894,455.137c0,0.293-0.237,0.531-0.531,0.531h-11.679c-0.293,0-0.531-0.237-0.531-0.531v-2.123
	c0-0.293,0.237-0.531,0.531-0.531h11.679c0.293,0,0.531,0.237,0.531,0.531V455.137z"/>
<path d="M168.684,450.36h6.37c0.292,0,0.531-0.238,0.531-0.531v-2.123c0-0.292-0.238-0.531-0.531-0.531h-6.37
	c-0.292,0-0.531,0.238-0.531,0.531v2.123C168.153,450.121,168.392,450.36,168.684,450.36z"/>
<path d="M168.684,460.977h8.494c0.292,0,0.531-0.238,0.531-0.531v-2.123c0-0.292-0.238-0.531-0.531-0.531h-8.494
	c-0.292,0-0.531,0.238-0.531,0.531v2.123C168.153,460.738,168.392,460.977,168.684,460.977z"/>
<path d="M182.487,463.1h-13.803c-0.292,0-0.531,0.238-0.531,0.531v2.124c0,0.292,0.238,0.531,0.531,0.531h13.803
	c0.292,0,0.531-0.238,0.531-0.531v-2.124C183.018,463.339,182.779,463.1,182.487,463.1z"/>
<rect x="164.059" y="445.051" width="2.123" height="23.358"/>
<rect x="198" y="439" fill="#B1F0FF" width="35" height="35"/>
<path d="M228.535,455.137c0,0.293-0.237,0.531-0.531,0.531h-11.679c-0.293,0-0.531-0.237-0.531-0.531v-2.123
	c0-0.293,0.237-0.531,0.531-0.531h11.679c0.293,0,0.531,0.237,0.531,0.531V455.137z"/>
<path d="M216.325,450.36h6.37c0.292,0,0.531-0.238,0.531-0.531v-2.123c0-0.292-0.238-0.531-0.531-0.531h-6.37
	c-0.292,0-0.531,0.238-0.531,0.531v2.123C215.794,450.121,216.032,450.36,216.325,450.36z"/>
<path d="M216.325,460.977h8.494c0.292,0,0.531-0.238,0.531-0.531v-2.123c0-0.292-0.238-0.531-0.531-0.531h-8.494
	c-0.292,0-0.531,0.238-0.531,0.531v2.123C215.794,460.738,216.032,460.977,216.325,460.977z"/>
<path d="M230.127,463.1h-13.803c-0.292,0-0.531,0.238-0.531,0.531v2.124c0,0.292,0.238,0.531,0.531,0.531h13.803
	c0.292,0,0.531-0.238,0.531-0.531v-2.124C230.658,463.339,230.42,463.1,230.127,463.1z"/>
<polygon points="205.635,455.468 210.082,455.468 210.082,456.95 205.635,456.95 205.635,459.915 200.694,456.209 205.635,452.503 
	"/>
<polygon points="128.491,359.911 134.277,359.911 134.277,361.84 128.491,361.84 128.491,365.697 122.063,360.876 128.491,356.054 
	"/>
<rect x="211.7" y="445.051" width="2.123" height="23.358"/>
<rect x="54" y="631" fill="#B1F0FF" width="35" height="35"/>
<rect x="102" y="631" fill="#B1F0FF" width="35" height="35"/>
<rect x="150" y="631" fill="#B1F0FF" width="35" height="35"/>
<rect x="198" y="631" fill="#B1F0FF" width="35" height="35"/>
<rect x="54" y="343" fill="#B1F0FF" width="35" height="35"/>
<g id="vector_x5F_path_x5F_square">
	<g>
		<path d="M133.083,63.653v-4.486h-4.486v1.122h-17.944v-1.122h-4.486v4.486h1.122v17.944h-1.122v4.486h4.486v-1.122h17.944v1.122
			h4.486v-4.486h-1.122V63.653H133.083z M129.719,60.288h2.243v2.243h-2.243V60.288z M107.288,60.288h2.243v2.243h-2.243V60.288z
			 M109.531,84.962h-2.243v-2.243h2.243V84.962z M131.962,84.962h-2.243v-2.243h2.243V84.962z M129.719,81.597h-1.122v1.122h-17.944
			v-1.122h-1.122V63.653h1.122v-1.122h17.944v1.122h1.122V81.597z"/>
	</g>
	<polygon opacity="0.3" points="128.597,82.719 128.597,81.597 129.719,81.597 129.719,63.653 128.597,63.653 128.597,62.531 
		110.653,62.531 110.653,63.653 109.531,63.653 109.531,81.597 110.653,81.597 110.653,82.719 	"/>
</g>
<g id="more_x5F_windows">
	<path d="M127.417,641.783h-10c-2.205,0-4,1.794-4,4v10c0,2.206,1.795,4,4,4h10c2.205,0,4-1.794,4-4v-10
		C131.417,643.577,129.623,641.783,127.417,641.783z M129.417,656.783c0,0.55-0.45,1-1,1h-12c-0.55,0-1-0.45-1-1v-12
		c0-0.55,0.45-1,1-1h12c0.55,0,1,0.45,1,1V656.783z M112.417,654.783c-2.205,0-4-1.794-4-4v-10c0-2.206,1.795-4,4-4h10
		c2.205,0,4,1.794,4,4h-2v-1c0-0.55-0.45-1-1-1h-12c-0.55,0-1,0.45-1,1v12c0,0.55,0.45,1,1,1h1V654.783z M123.739,643.218
		l-7.412,0.292l-1.401,0.642l-0.642,5.37l0.7,8.23l2.218,1.226l9.864-0.058l2.393-0.175l1.401-2.626l-0.35-11.615l-2.16-1.576
		L123.739,643.218z"/>
</g>
<g>
	<g id="more_x5F_windows_1_">
		<path d="M79.917,641.209h-10c-2.205,0-4,1.794-4,4v10c0,2.206,1.795,4,4,4h10c2.205,0,4-1.794,4-4v-10
			C83.917,643.003,82.122,641.209,79.917,641.209z M81.917,656.209c0,0.55-0.45,1-1,1h-12c-0.55,0-1-0.45-1-1v-12c0-0.55,0.45-1,1-1
			h12c0.55,0,1,0.45,1,1V656.209z M64.583,654.209c-1.812,0-3.667-1.794-3.667-4v-10c0-2.206,1.795-4,4-4h10c2.205,0,4,1.794,4,4h-2
			v-1c0-0.55-0.45-1-1-1h-12c-0.55,0-1,0.45-1,1v12c0,0.55,0.45,1,1,1h0.667V654.209z"/>
	</g>
	<path d="M65,644.654c0-2.451,1.911-4.654,4.361-4.654H79v-0.709l-2.32-1.721l-2.322-0.671L72.583,637h-6l-2.894,0.541l-1.517,1.065
		l-0.525,8.324l0.934,5.19l2.04,1.943l0.38,0.133V644.654z"/>
</g>
<g id="text_x5F_resize_1_">
	<path d="M161,638.5c-1.135,0-3,0-3,0v5c0,0,0,0,0.996,0c0.004-2,1.233-3,3.004-3h4v14c0,1-2,1-3,1c0,1,0,1,0,1h10c0,0,0,0,0-1
		c-1,0-3,0-3-1v-14h4c1.77,0,3,1,3.004,3c0.996,0,0.996,0,0.996,0v-5c0,0-1.865,0-3,0H161z"/>
	<path d="M181,637.5v-3h-3v1h-20v-1h-3v3h1v20h-1v3h3v-1h20v1h3v-3h-1v-20H181z M156,635.5h1v1h-1V635.5z M157,659.5h-1v-1h1V659.5z
		 M178,658.5h-20v-1h-1v-20h1v-1h20v1h1v20h-1V658.5z M180,659.5h-1v-1h1V659.5z M179,636.5v-1h1v1H179z"/>
</g>
<g id="text_x5F_width">
	<polygon points="200.248,647.911 204.441,651.056 204.441,648.54 227.054,648.54 227.054,651.056 231.247,647.911 227.054,644.765 
		227.054,647.282 204.441,647.282 204.441,644.765 	"/>
</g>
<path d="M208.748,638.911c-1.135,0-3,0-3,0v5c0,0,0,0,0.996,0c0.004-2,1.233-3,3.004-3h4v14c0,1-2,1-3,1c0,1,0,1,0,1h10c0,0,0,0,0-1
	c-1,0-3,0-3-1v-14h4c1.77,0,3,1,3.004,3c0.996,0,0.996,0,0.996,0v-5c0,0-1.865,0-3,0H208.748z"/>
<g>
	<rect x="102" y="151" fill="#B1F0FF" width="35" height="35"/>
</g>
<g>
	<path d="M270.431,256.582l-1.152,3.49h-1.482l3.771-11.097h1.729l3.787,11.097h-1.531l-1.185-3.49H270.431z M274.07,255.462
		l-1.103-3.193c-0.23-0.725-0.396-1.384-0.56-2.025h-0.049c-0.148,0.642-0.329,1.334-0.543,2.009l-1.086,3.21H274.07z"/>
</g>
<g>
	<path d="M320.303,275.751l-1.152,3.49h-1.482l3.771-11.097h1.729l3.787,11.097h-1.531l-1.185-3.49H320.303z M323.941,274.631
		l-1.103-3.193c-0.23-0.725-0.396-1.384-0.56-2.025h-0.049c-0.148,0.642-0.329,1.334-0.543,2.009l-1.086,3.21H323.941z"/>
</g>
<rect x="150" y="151" fill="#B1F0FF" width="35" height="35"/>
<rect x="198" y="151" fill="#B1F0FF" width="35" height="35"/>
<rect x="246" y="151" fill="#B1F0FF" width="35" height="35"/>
<rect x="294" y="151" fill="#B1F0FF" width="35" height="35"/>
<g opacity="0.5">
	<path d="M350.685,157.729v2.818h3.258v-2.818h0.879v6.736h-0.879v-3.158h-3.258v3.158h-0.879v-6.736H350.685z"/>
</g>
<g>
	<path d="M108.5,457.852v1.02h-3.848c0.042-0.386,0.167-0.751,0.375-1.096s0.62-0.803,1.234-1.373
		c0.495-0.461,0.798-0.773,0.91-0.938c0.151-0.227,0.227-0.45,0.227-0.672c0-0.245-0.066-0.433-0.197-0.564
		s-0.313-0.197-0.545-0.197c-0.229,0-0.412,0.069-0.547,0.207s-0.213,0.367-0.234,0.688l-1.094-0.109
		c0.065-0.604,0.27-1.038,0.613-1.301s0.773-0.395,1.289-0.395c0.565,0,1.009,0.152,1.332,0.457s0.484,0.684,0.484,1.137
		c0,0.258-0.046,0.503-0.139,0.736s-0.239,0.478-0.439,0.732c-0.133,0.169-0.373,0.413-0.719,0.73s-0.566,0.528-0.658,0.633
		s-0.167,0.206-0.225,0.305H108.5z"/>
</g>
<g>
	<path d="M107.537,451.327h-1.098v-4.137c-0.401,0.375-0.874,0.652-1.418,0.832v-0.996c0.287-0.094,0.598-0.271,0.934-0.533
		s0.566-0.567,0.691-0.916h0.891V451.327z"/>
</g>
<g>
	<path d="M104.828,465.172l1.062-0.129c0.034,0.271,0.125,0.478,0.273,0.621s0.328,0.215,0.539,0.215
		c0.227,0,0.417-0.086,0.572-0.258s0.232-0.403,0.232-0.695c0-0.276-0.074-0.495-0.223-0.656s-0.33-0.242-0.543-0.242
		c-0.141,0-0.309,0.027-0.504,0.082l0.121-0.895c0.297,0.008,0.523-0.057,0.68-0.193s0.234-0.318,0.234-0.545
		c0-0.192-0.057-0.347-0.172-0.461s-0.267-0.172-0.457-0.172c-0.188,0-0.348,0.065-0.48,0.195s-0.213,0.32-0.242,0.57l-1.012-0.172
		c0.07-0.347,0.176-0.623,0.318-0.83s0.34-0.37,0.594-0.488s0.539-0.178,0.854-0.178c0.539,0,0.971,0.172,1.297,0.516
		c0.268,0.281,0.402,0.599,0.402,0.953c0,0.503-0.275,0.903-0.824,1.203c0.328,0.07,0.59,0.228,0.787,0.473s0.295,0.54,0.295,0.887
		c0,0.503-0.184,0.931-0.551,1.285s-0.824,0.531-1.371,0.531c-0.518,0-0.948-0.149-1.289-0.447S104.882,465.653,104.828,465.172z"/>
</g>
<g>
	<rect x="350" y="263" width="21" height="3"/>
	<rect x="345.5" y="262.5" fill="none" stroke="#000000" stroke-miterlimit="10" width="4" height="4"/>
	<rect x="370.5" y="262.5" fill="none" stroke="#000000" stroke-miterlimit="10" width="4" height="4"/>
</g>
<path fill-rule="evenodd" clip-rule="evenodd" d="M369.045,174.34c0,0.229-0.187,0.417-0.417,0.417h-19.156
	c-0.229,0-0.417-0.187-0.417-0.417v-1.667c0-0.229,0.187-0.417,0.417-0.417h19.156c0.229,0,0.417,0.187,0.417,0.417V174.34z"/>
<path fill-rule="evenodd" clip-rule="evenodd" d="M369.045,167.673c0-0.229-0.187-0.417-0.417-0.417h-19.156
	c-0.229,0-0.417,0.187-0.417,0.417v1.667c0,0.229,0.187,0.417,0.417,0.417h19.156c0.229,0,0.417-0.187,0.417-0.417V167.673z"/>
<path fill-rule="evenodd" clip-rule="evenodd" d="M364.056,177.673c0-0.229-0.187-0.417-0.417-0.417h-14.167
	c-0.229,0-0.417,0.187-0.417,0.417v1.667c0,0.229,0.187,0.417,0.417,0.417h14.167c0.229,0,0.417-0.187,0.417-0.417V177.673z"/>
<rect x="390" y="151" fill="#B1F0FF" width="35" height="35"/>
<path fill-rule="evenodd" clip-rule="evenodd" d="M416.049,169.648c0,0.215-0.153,0.39-0.34,0.39H400.1
	c-0.187,0-0.34-0.175-0.34-0.39v-1.56c0-0.215,0.153-0.39,0.34-0.39h15.61c0.187,0,0.34,0.175,0.34,0.39V169.648z"/>
<path fill-rule="evenodd" clip-rule="evenodd" d="M416.049,163.407c0-0.215-0.153-0.39-0.34-0.39H400.1
	c-0.187,0-0.34,0.175-0.34,0.39v1.56c0,0.215,0.153,0.39,0.34,0.39h15.61c0.187,0,0.34-0.175,0.34-0.39V163.407z"/>
<path fill-rule="evenodd" clip-rule="evenodd" d="M411.983,172.768c0-0.215-0.153-0.39-0.34-0.39H400.1
	c-0.187,0-0.34,0.175-0.34,0.39v1.56c0,0.215,0.153,0.39,0.34,0.39h11.544c0.187,0,0.34-0.175,0.34-0.39V172.768z"/>
<g>
	<path d="M359.607,364.694h-6.932v-0.699c0.322-0.024,0.701-0.082,1.137-0.175s0.653-0.208,0.653-0.346
		c0-0.048-0.004-0.102-0.014-0.161c-0.009-0.06-0.034-0.141-0.076-0.242l-1.086-2.636h-4.392c-0.101,0.245-0.213,0.531-0.334,0.86
		c-0.122,0.329-0.228,0.622-0.316,0.879c-0.113,0.335-0.18,0.577-0.201,0.727c-0.021,0.149-0.032,0.254-0.032,0.313
		c0,0.191,0.145,0.354,0.435,0.488c0.29,0.135,0.772,0.232,1.447,0.292v0.699h-5.218v-0.699c0.197-0.012,0.42-0.044,0.668-0.095
		s0.444-0.121,0.587-0.21c0.245-0.144,0.453-0.32,0.623-0.529s0.312-0.457,0.426-0.744c0.693-1.68,1.388-3.362,2.085-5.049
		c0.696-1.686,1.466-3.545,2.309-5.577h1.793c1.172,2.882,2.089,5.159,2.753,6.833s1.229,3.061,1.695,4.16
		c0.078,0.18,0.176,0.343,0.296,0.489s0.29,0.285,0.511,0.417c0.167,0.096,0.361,0.167,0.583,0.215s0.421,0.078,0.601,0.09V364.694z
		 M352.921,359.548l-1.842-4.6l-1.814,4.6H352.921z"/>
</g>
<g>
	<path d="M361.091,364.694l4.157-13.146h1.525l4.415,13.146h-1.632l-1.254-3.981h-4.535l-1.171,3.981H361.091z M364.184,359.296
		h3.672l-1.12-3.64c-0.347-1.118-0.601-2.027-0.762-2.727c-0.139,0.843-0.336,1.68-0.59,2.511L364.184,359.296z"/>
</g>
<path fill="none" stroke="#000000" stroke-miterlimit="10" d="M374.249,365.018c0.403,0.405,0.324,1.13-0.177,1.619l-7.698,7.528
	c-0.5,0.489-1.232,0.557-1.635,0.152l-2.552-2.568c-0.403-0.405-0.324-1.13,0.177-1.619l7.699-7.528
	c0.5-0.489,1.232-0.557,1.635-0.152L374.249,365.018z"/>
<polygon points="366.321,366.502 370.492,362 371.488,361.939 374.222,365.482 374.19,366.367 370.012,370.401 "/>
<line opacity="0.5" fill="none" stroke="#000000" stroke-linecap="round" stroke-linejoin="round" stroke-miterlimit="10" x1="358.574" y1="349.734" x2="361.617" y2="351.947"/>
<line opacity="0.5" fill="none" stroke="#000000" stroke-linecap="round" stroke-linejoin="round" stroke-miterlimit="10" x1="364.1" y1="345.654" x2="364.936" y2="349.431"/>
<line opacity="0.5" fill="none" stroke="#000000" stroke-linecap="round" stroke-linejoin="round" stroke-miterlimit="10" x1="368.739" y1="349.734" x2="370.797" y2="346.362"/>
<line opacity="0.5" fill="none" stroke="#000000" stroke-linecap="round" stroke-linejoin="round" stroke-miterlimit="10" x1="370.271" y1="353.261" x2="374.222" y2="351.947"/>
<line opacity="0.5" fill="none" stroke="#000000" stroke-linecap="round" stroke-linejoin="round" stroke-miterlimit="10" x1="393.931" y1="159.864" x2="396.906" y2="161.853"/>
<line opacity="0.5" fill="none" stroke="#000000" stroke-linecap="round" stroke-linejoin="round" stroke-miterlimit="10" x1="392.308" y1="168.548" x2="395.555" y2="168.543"/>
<line opacity="0.5" fill="none" stroke="#000000" stroke-linecap="round" stroke-linejoin="round" stroke-miterlimit="10" x1="419.365" y1="168.548" x2="422.612" y2="168.543"/>
<line opacity="0.5" fill="none" stroke="#000000" stroke-linecap="round" stroke-linejoin="round" stroke-miterlimit="10" x1="400.238" y1="155.228" x2="401.885" y2="159.196"/>
<line opacity="0.5" fill="none" stroke="#000000" stroke-linecap="round" stroke-linejoin="round" stroke-miterlimit="10" x1="407.5" y1="154" x2="407.5" y2="158"/>
<line opacity="0.5" fill="none" stroke="#000000" stroke-linecap="round" stroke-linejoin="round" stroke-miterlimit="10" x1="421.576" y1="159.864" x2="418.602" y2="161.853"/>
<line opacity="0.5" fill="none" stroke="#000000" stroke-linecap="round" stroke-linejoin="round" stroke-miterlimit="10" x1="415.27" y1="155.228" x2="413.617" y2="159.196"/>
<line opacity="0.5" fill="none" stroke="#000000" stroke-linecap="round" stroke-linejoin="round" stroke-miterlimit="10" x1="393.931" y1="178.126" x2="396.906" y2="176.137"/>
<line opacity="0.5" fill="none" stroke="#000000" stroke-linecap="round" stroke-linejoin="round" stroke-miterlimit="10" x1="400.238" y1="182.762" x2="401.885" y2="178.455"/>
<line opacity="0.5" fill="none" stroke="#000000" stroke-linecap="round" stroke-linejoin="round" stroke-miterlimit="10" x1="407.5" y1="184" x2="407.5" y2="180"/>
<line opacity="0.5" fill="none" stroke="#000000" stroke-linecap="round" stroke-linejoin="round" stroke-miterlimit="10" x1="421.576" y1="178.126" x2="418.602" y2="176.137"/>
<line opacity="0.5" fill="none" stroke="#000000" stroke-linecap="round" stroke-linejoin="round" stroke-miterlimit="10" x1="415.27" y1="182.762" x2="413.617" y2="178.794"/>
<g>
	<path d="M62.71,349.022v2.664h3.079v-2.664h0.831v6.366H65.79v-2.984H62.71v2.984h-0.831v-6.366H62.71z"/>
</g>
<path fill-rule="evenodd" clip-rule="evenodd" d="M81.17,365.268c0,0.23-0.187,0.417-0.417,0.417H61.587
	c-0.23,0-0.417-0.187-0.417-0.417v-1.667c0-0.23,0.187-0.417,0.417-0.417h19.166c0.23,0,0.417,0.187,0.417,0.417V365.268z"/>
<path fill-rule="evenodd" clip-rule="evenodd" d="M81.17,358.598c0-0.23-0.187-0.417-0.417-0.417H61.587
	c-0.23,0-0.417,0.187-0.417,0.417v1.667c0,0.23,0.187,0.417,0.417,0.417h19.166c0.23,0,0.417-0.187,0.417-0.417V358.598z"/>
<path fill-rule="evenodd" clip-rule="evenodd" d="M76.178,368.603c0-0.23-0.187-0.417-0.417-0.417H61.587
	c-0.23,0-0.417,0.187-0.417,0.417v1.668c0,0.23,0.187,0.417,0.417,0.417h14.174c0.23,0,0.417-0.187,0.417-0.417V368.603z"/>
<g>
	<g>
		<polyline fill="none" stroke="#000000" stroke-miterlimit="10" points="85.774,372.136 85.774,374.136 83.774,374.136 		"/>
		<line fill="none" stroke="#000000" stroke-miterlimit="10" stroke-dasharray="4,2" x1="82" y1="374.5" x2="61" y2="374.5"/>
		<polyline fill="none" stroke="#000000" stroke-miterlimit="10" points="60.342,374.136 58.342,374.136 58.342,372.136 		"/>
		<line fill="none" stroke="#000000" stroke-miterlimit="10" stroke-dasharray="4,2" x1="58.5" y1="370" x2="58.5" y2="349"/>
		<polyline fill="none" stroke="#000000" stroke-miterlimit="10" points="58.342,348.333 58.342,346.333 60.342,346.333 		"/>
		<line fill="none" stroke="#000000" stroke-miterlimit="10" stroke-dasharray="4,2" x1="62" y1="346.5" x2="83" y2="346.5"/>
		<polyline fill="none" stroke="#000000" stroke-miterlimit="10" points="83.774,346.333 85.774,346.333 85.774,348.333 		"/>
		<line fill="none" stroke="#000000" stroke-miterlimit="10" stroke-dasharray="4,2" x1="85.5" y1="350" x2="85.5" y2="371"/>
	</g>
</g>
<rect x="347.5" y="251.5" opacity="0.3" fill="none" stroke="#000000" stroke-miterlimit="10" width="25" height="26"/>
<g>
	<g>
		<g>
			
				<line fill="none" stroke="#000000" stroke-width="2" stroke-linecap="round" stroke-linejoin="round" stroke-miterlimit="10" x1="72.488" y1="542.043" x2="76.488" y2="544.465"/>
			
				<line fill="none" stroke="#000000" stroke-width="2" stroke-linecap="round" stroke-linejoin="round" stroke-miterlimit="10" x1="76.488" y1="544.465" x2="76.488" y2="560.015"/>
			
				<line fill="none" stroke="#000000" stroke-width="2" stroke-linecap="round" stroke-linejoin="round" stroke-miterlimit="10" x1="76.488" y1="560.015" x2="72.488" y2="562.719"/>
			
				<line fill="none" stroke="#000000" stroke-width="2" stroke-linecap="round" stroke-linejoin="round" stroke-miterlimit="10" x1="80.488" y1="542.043" x2="76.488" y2="544.465"/>
			
				<line fill="none" stroke="#000000" stroke-width="2" stroke-linecap="round" stroke-linejoin="round" stroke-miterlimit="10" x1="76.488" y1="560.015" x2="80.488" y2="562.719"/>
		</g>
		<polygon points="67.108,547.776 71,547.776 71,549.406 67.108,549.406 67.108,552.668 61.674,548.591 67.108,544.515 		"/>
	</g>
</g>
<g>
	<g>
		<g>
			
				<line fill="none" stroke="#000000" stroke-width="2" stroke-linecap="round" stroke-linejoin="round" stroke-miterlimit="10" x1="179.053" y1="542.043" x2="175.053" y2="544.465"/>
			
				<line fill="none" stroke="#000000" stroke-width="2" stroke-linecap="round" stroke-linejoin="round" stroke-miterlimit="10" x1="175.053" y1="544.465" x2="175.053" y2="560.015"/>
			
				<line fill="none" stroke="#000000" stroke-width="2" stroke-linecap="round" stroke-linejoin="round" stroke-miterlimit="10" x1="175.053" y1="560.015" x2="179.053" y2="562.719"/>
			
				<line fill="none" stroke="#000000" stroke-width="2" stroke-linecap="round" stroke-linejoin="round" stroke-miterlimit="10" x1="171.053" y1="542.043" x2="175.053" y2="544.465"/>
			
				<line fill="none" stroke="#000000" stroke-width="2" stroke-linecap="round" stroke-linejoin="round" stroke-miterlimit="10" x1="175.053" y1="560.015" x2="171.053" y2="562.719"/>
		</g>
		<polygon points="161.786,551.565 169.099,551.565 169.099,553.196 161.786,553.196 161.786,556.457 156.351,552.381 
			161.786,548.304 		"/>
	</g>
	
		<line fill="none" stroke="#0D0000" stroke-linecap="round" stroke-linejoin="round" stroke-miterlimit="10" x1="169" y1="562.5" x2="157" y2="562.5"/>
</g>
<g>
	<g>
		<g>
			
				<line fill="none" stroke="#000000" stroke-width="2" stroke-linecap="round" stroke-linejoin="round" stroke-miterlimit="10" x1="276.053" y1="542.043" x2="272.053" y2="544.465"/>
			
				<line fill="none" stroke="#000000" stroke-width="2" stroke-linecap="round" stroke-linejoin="round" stroke-miterlimit="10" x1="272.053" y1="544.465" x2="272.053" y2="560.015"/>
			
				<line fill="none" stroke="#000000" stroke-width="2" stroke-linecap="round" stroke-linejoin="round" stroke-miterlimit="10" x1="272.053" y1="560.015" x2="276.053" y2="562.719"/>
			
				<line fill="none" stroke="#000000" stroke-width="2" stroke-linecap="round" stroke-linejoin="round" stroke-miterlimit="10" x1="268.053" y1="542.043" x2="272.053" y2="544.465"/>
			
				<line fill="none" stroke="#000000" stroke-width="2" stroke-linecap="round" stroke-linejoin="round" stroke-miterlimit="10" x1="272.053" y1="560.015" x2="268.053" y2="562.719"/>
		</g>
		<polygon points="257.825,551.565 266.099,551.565 266.099,553.196 257.825,553.196 257.825,556.457 252.39,552.381 
			257.825,548.304 		"/>
	</g>
	<polyline fill="none" stroke="#0D0000" stroke-linecap="round" stroke-linejoin="round" stroke-miterlimit="10" points="
		265.25,562.969 264,561.156 262.031,564 260,561.156 257.938,564 255.938,561.156 254,564 252.688,561.969 	"/>
</g>
<g>
	<g>
		<g>
			
				<line fill="none" stroke="#000000" stroke-width="2" stroke-linecap="round" stroke-linejoin="round" stroke-miterlimit="10" x1="299.779" y1="542.043" x2="303.779" y2="544.465"/>
			
				<line fill="none" stroke="#000000" stroke-width="2" stroke-linecap="round" stroke-linejoin="round" stroke-miterlimit="10" x1="303.779" y1="544.465" x2="303.779" y2="560.015"/>
			
				<line fill="none" stroke="#000000" stroke-width="2" stroke-linecap="round" stroke-linejoin="round" stroke-miterlimit="10" x1="303.779" y1="560.015" x2="299.779" y2="562.719"/>
			
				<line fill="none" stroke="#000000" stroke-width="2" stroke-linecap="round" stroke-linejoin="round" stroke-miterlimit="10" x1="307.779" y1="542.043" x2="303.779" y2="544.465"/>
			
				<line fill="none" stroke="#000000" stroke-width="2" stroke-linecap="round" stroke-linejoin="round" stroke-miterlimit="10" x1="303.779" y1="560.015" x2="307.779" y2="562.719"/>
		</g>
		<polygon points="318.008,551.565 309.733,551.565 309.733,553.196 318.008,553.196 318.008,556.457 323.442,552.381 
			318.008,548.304 		"/>
	</g>
	<polyline fill="none" stroke="#0D0000" stroke-linecap="round" stroke-linejoin="round" stroke-miterlimit="10" points="
		310.583,562.969 311.833,561.156 313.801,564 315.833,561.156 317.895,564 319.895,561.156 321.833,564 323.145,561.969 	"/>
</g>
<rect x="342" y="535" fill="#B1F0FF" width="35" height="35"/>
<rect x="390" y="535" fill="#B1F0FF" width="35" height="35"/>
<g>
	<g>
		
			<line fill="none" stroke="#000000" stroke-width="2" stroke-linecap="round" stroke-linejoin="round" stroke-miterlimit="10" x1="372.053" y1="542.043" x2="368.053" y2="544.465"/>
		
			<line fill="none" stroke="#000000" stroke-width="2" stroke-linecap="round" stroke-linejoin="round" stroke-miterlimit="10" x1="368.053" y1="544.465" x2="368.053" y2="560.015"/>
		
			<line fill="none" stroke="#000000" stroke-width="2" stroke-linecap="round" stroke-linejoin="round" stroke-miterlimit="10" x1="368.053" y1="560.015" x2="372.053" y2="562.719"/>
		
			<line fill="none" stroke="#000000" stroke-width="2" stroke-linecap="round" stroke-linejoin="round" stroke-miterlimit="10" x1="364.053" y1="542.043" x2="368.053" y2="544.465"/>
		
			<line fill="none" stroke="#000000" stroke-width="2" stroke-linecap="round" stroke-linejoin="round" stroke-miterlimit="10" x1="368.053" y1="560.015" x2="364.053" y2="562.719"/>
	</g>
	<polygon points="355.897,550.961 355.897,556.235 354.266,556.235 354.266,550.961 351.005,550.961 355.082,545.526 
		359.158,550.961 	"/>
	
		<line fill="none" stroke="#0D0000" stroke-linecap="round" stroke-linejoin="round" stroke-miterlimit="10" x1="349" y1="544.5" x2="361" y2="544.5"/>
	
		<line fill="none" stroke="#0D0000" stroke-linecap="round" stroke-linejoin="round" stroke-miterlimit="10" x1="349" y1="562.5" x2="361" y2="562.5"/>
</g>
<g>
	<g>
		
			<line fill="none" stroke="#000000" stroke-width="2" stroke-linecap="round" stroke-linejoin="round" stroke-miterlimit="10" x1="419.79" y1="542.043" x2="415.79" y2="544.465"/>
		
			<line fill="none" stroke="#000000" stroke-width="2" stroke-linecap="round" stroke-linejoin="round" stroke-miterlimit="10" x1="415.79" y1="544.465" x2="415.79" y2="560.015"/>
		
			<line fill="none" stroke="#000000" stroke-width="2" stroke-linecap="round" stroke-linejoin="round" stroke-miterlimit="10" x1="415.79" y1="560.015" x2="419.79" y2="562.719"/>
		
			<line fill="none" stroke="#000000" stroke-width="2" stroke-linecap="round" stroke-linejoin="round" stroke-miterlimit="10" x1="411.79" y1="542.043" x2="415.79" y2="544.465"/>
		
			<line fill="none" stroke="#000000" stroke-width="2" stroke-linecap="round" stroke-linejoin="round" stroke-miterlimit="10" x1="415.79" y1="560.015" x2="411.79" y2="562.719"/>
	</g>
	<polygon points="403.634,556.155 403.634,550.881 402.003,550.881 402.003,556.155 398.742,556.155 402.818,561.59 
		406.895,556.155 	"/>
	
		<line fill="none" stroke="#0D0000" stroke-linecap="round" stroke-linejoin="round" stroke-miterlimit="10" x1="397" y1="544.5" x2="409" y2="544.5"/>
	
		<line fill="none" stroke="#0D0000" stroke-linecap="round" stroke-linejoin="round" stroke-miterlimit="10" x1="397" y1="562.5" x2="409" y2="562.5"/>
</g>
<g>
	<g>
		<g>
			
				<line fill="none" stroke="#000000" stroke-width="2" stroke-linecap="round" stroke-linejoin="round" stroke-miterlimit="10" x1="205.101" y1="542.043" x2="209.101" y2="544.465"/>
			
				<line fill="none" stroke="#000000" stroke-width="2" stroke-linecap="round" stroke-linejoin="round" stroke-miterlimit="10" x1="209.101" y1="544.465" x2="209.101" y2="560.015"/>
			
				<line fill="none" stroke="#000000" stroke-width="2" stroke-linecap="round" stroke-linejoin="round" stroke-miterlimit="10" x1="209.101" y1="560.015" x2="205.101" y2="562.719"/>
			
				<line fill="none" stroke="#000000" stroke-width="2" stroke-linecap="round" stroke-linejoin="round" stroke-miterlimit="10" x1="213.101" y1="542.043" x2="209.101" y2="544.465"/>
			
				<line fill="none" stroke="#000000" stroke-width="2" stroke-linecap="round" stroke-linejoin="round" stroke-miterlimit="10" x1="209.101" y1="560.015" x2="213.101" y2="562.719"/>
		</g>
		<polygon points="222.369,551.565 215.055,551.565 215.055,553.196 222.369,553.196 222.369,556.457 227.803,552.381 
			222.369,548.304 		"/>
	</g>
	
		<line fill="none" stroke="#0D0000" stroke-linecap="round" stroke-linejoin="round" stroke-miterlimit="10" x1="216" y1="562.5" x2="228" y2="562.5"/>
</g>
<path d="M112.769,354.691c-3.416,0-6.185,2.769-6.185,6.185c0,3.416,2.769,6.185,6.185,6.185c3.416,0,6.185-2.769,6.185-6.185
	C118.954,357.46,116.185,354.691,112.769,354.691z M116.015,362.995c0.133,0.132,0.133,0.349,0,0.481l-0.721,0.722
	c-0.134,0.133-0.35,0.133-0.482,0l-2.042-2.042l-2.044,2.043c-0.132,0.133-0.35,0.133-0.481,0l-0.721-0.722
	c-0.134-0.132-0.134-0.349,0-0.482l2.043-2.044l-2.044-2.045c-0.134-0.132-0.134-0.348,0-0.482l0.721-0.722
	c0.133-0.132,0.351-0.132,0.481,0l2.045,2.045l2.044-2.043c0.132-0.133,0.348-0.133,0.482,0l0.721,0.722
	c0.133,0.133,0.133,0.35,0,0.482l-2.043,2.044L116.015,362.995z"/>
<rect x="150" y="343" fill="#B1F0FF" width="35" height="35"/>
<path d="M169.005,360.876c0,3.416,2.769,6.185,6.185,6.185c3.416,0,6.185-2.769,6.185-6.185c0-3.416-2.769-6.185-6.185-6.185
	C171.774,354.691,169.005,357.46,169.005,360.876z M173.986,360.952l-2.043-2.044c-0.133-0.132-0.133-0.348,0-0.482l0.721-0.722
	c0.134-0.133,0.35-0.133,0.482,0l2.044,2.043l2.045-2.045c0.131-0.132,0.348-0.132,0.482,0l0.721,0.722
	c0.134,0.133,0.134,0.35,0,0.482l-2.044,2.045l2.043,2.044c0.134,0.132,0.134,0.349,0,0.482l-0.721,0.722
	c-0.132,0.133-0.349,0.133-0.481,0l-2.044-2.043l-2.042,2.042c-0.132,0.133-0.349,0.133-0.482,0l-0.721-0.722
	c-0.133-0.132-0.133-0.349,0-0.481L173.986,360.952z"/>
<g>
	<path d="M66.695,562.764c-0.488,0.415-0.958,0.708-1.41,0.879c-0.452,0.17-0.936,0.256-1.454,0.256
		c-0.854,0-1.511-0.209-1.97-0.626c-0.459-0.418-0.688-0.951-0.688-1.601c0-0.381,0.086-0.729,0.26-1.044
		c0.173-0.314,0.4-0.567,0.682-0.758c0.28-0.19,0.597-0.334,0.948-0.433c0.259-0.067,0.649-0.134,1.172-0.197
		c1.064-0.127,1.848-0.278,2.351-0.454c0.005-0.181,0.007-0.295,0.007-0.345c0-0.536-0.125-0.915-0.374-1.135
		c-0.337-0.298-0.837-0.447-1.501-0.447c-0.62,0-1.078,0.109-1.373,0.326c-0.296,0.218-0.514,0.603-0.656,1.154l-1.289-0.176
		c0.117-0.552,0.31-0.998,0.579-1.337c0.269-0.34,0.657-0.601,1.165-0.784c0.508-0.183,1.096-0.274,1.765-0.274
		c0.664,0,1.204,0.078,1.619,0.234s0.72,0.353,0.916,0.59c0.195,0.236,0.332,0.536,0.41,0.897c0.044,0.225,0.066,0.629,0.066,1.215
		v1.758c0,1.227,0.028,2.001,0.084,2.326c0.056,0.324,0.167,0.636,0.333,0.934h-1.377C66.822,563.449,66.734,563.129,66.695,562.764
		z M66.585,559.818c-0.479,0.196-1.196,0.362-2.153,0.498c-0.542,0.079-0.925,0.167-1.15,0.264c-0.225,0.099-0.398,0.241-0.52,0.429
		c-0.122,0.188-0.183,0.397-0.183,0.626c0,0.352,0.133,0.645,0.399,0.879c0.266,0.234,0.655,0.352,1.168,0.352
		c0.508,0,0.959-0.11,1.355-0.333c0.396-0.222,0.686-0.525,0.872-0.911c0.142-0.298,0.212-0.737,0.212-1.318V559.818z"/>
</g>
<g>
	<g>
		<g>
			<g>
				
					<line fill="none" stroke="#000000" stroke-width="2" stroke-linecap="round" stroke-linejoin="round" stroke-miterlimit="10" x1="118.237" y1="542.043" x2="114.237" y2="544.465"/>
				
					<line fill="none" stroke="#000000" stroke-width="2" stroke-linecap="round" stroke-linejoin="round" stroke-miterlimit="10" x1="114.237" y1="544.465" x2="114.237" y2="560.015"/>
				
					<line fill="none" stroke="#000000" stroke-width="2" stroke-linecap="round" stroke-linejoin="round" stroke-miterlimit="10" x1="114.237" y1="560.015" x2="118.237" y2="562.719"/>
				
					<line fill="none" stroke="#000000" stroke-width="2" stroke-linecap="round" stroke-linejoin="round" stroke-miterlimit="10" x1="110.237" y1="542.043" x2="114.237" y2="544.465"/>
				
					<line fill="none" stroke="#000000" stroke-width="2" stroke-linecap="round" stroke-linejoin="round" stroke-miterlimit="10" x1="114.237" y1="560.015" x2="110.237" y2="562.719"/>
			</g>
			<polygon points="123.616,547.776 119.725,547.776 119.725,549.406 123.616,549.406 123.616,552.668 129.051,548.591 
				123.616,544.515 			"/>
		</g>
	</g>
	<g>
		<path d="M128.158,562.764c-0.488,0.415-0.958,0.708-1.41,0.879c-0.452,0.17-0.936,0.256-1.454,0.256
			c-0.854,0-1.511-0.209-1.97-0.626c-0.459-0.418-0.688-0.951-0.688-1.601c0-0.381,0.086-0.729,0.26-1.044
			c0.173-0.314,0.4-0.567,0.682-0.758c0.28-0.19,0.597-0.334,0.948-0.433c0.259-0.067,0.649-0.134,1.172-0.197
			c1.064-0.127,1.848-0.278,2.351-0.454c0.005-0.181,0.007-0.295,0.007-0.345c0-0.536-0.125-0.915-0.374-1.135
			c-0.337-0.298-0.837-0.447-1.501-0.447c-0.62,0-1.078,0.109-1.373,0.326c-0.296,0.218-0.514,0.603-0.656,1.154l-1.289-0.176
			c0.117-0.552,0.31-0.998,0.579-1.337c0.269-0.34,0.657-0.601,1.165-0.784c0.508-0.183,1.096-0.274,1.765-0.274
			c0.664,0,1.204,0.078,1.619,0.234s0.72,0.353,0.916,0.59c0.195,0.236,0.332,0.536,0.41,0.897c0.044,0.225,0.066,0.629,0.066,1.215
			v1.758c0,1.227,0.028,2.001,0.084,2.326c0.056,0.324,0.167,0.636,0.333,0.934h-1.377
			C128.285,563.449,128.197,563.129,128.158,562.764z M128.048,559.818c-0.479,0.196-1.196,0.362-2.153,0.498
			c-0.542,0.079-0.925,0.167-1.15,0.264c-0.225,0.099-0.398,0.241-0.52,0.429c-0.122,0.188-0.183,0.397-0.183,0.626
			c0,0.352,0.133,0.645,0.399,0.879c0.266,0.234,0.655,0.352,1.168,0.352c0.508,0,0.959-0.11,1.355-0.333
			c0.396-0.222,0.686-0.525,0.872-0.911c0.142-0.298,0.212-0.737,0.212-1.318V559.818z"/>
	</g>
</g>
<polygon points="157.501,455.468 153.053,455.468 153.053,456.95 157.501,456.95 157.501,459.915 162.442,456.209 157.501,452.503 
	"/>
<polygon points="159.902,359.911 154.116,359.911 154.116,361.84 159.902,361.84 159.902,365.697 166.33,360.876 159.902,356.054 
	"/>
<g>
	<g>
		<path d="M84.41,184.382H82.2v-8.329c-0.807,0.755-1.759,1.313-2.855,1.676v-2.006c0.577-0.188,1.204-0.547,1.88-1.073
			c0.676-0.527,1.141-1.142,1.392-1.845h1.793V184.382z"/>
	</g>
	<g>
		<path d="M61.561,152.974v8.464h9.785v-8.464h2.641v20.229h-2.641v-9.484h-9.785v9.484H58.92v-20.229H61.561z"/>
	</g>
</g>
<g>
	<g>
		<path d="M133.076,181.41v2.053h-7.747c0.084-0.776,0.336-1.512,0.755-2.206s1.248-1.616,2.485-2.765
			c0.996-0.928,1.607-1.557,1.833-1.888c0.304-0.456,0.456-0.907,0.456-1.353c0-0.493-0.132-0.872-0.397-1.137
			c-0.265-0.265-0.63-0.396-1.097-0.396c-0.461,0-0.828,0.139-1.101,0.416c-0.272,0.278-0.43,0.739-0.472,1.385l-2.202-0.221
			c0.131-1.216,0.542-2.089,1.235-2.618c0.692-0.53,1.557-0.795,2.595-0.795c1.138,0,2.032,0.307,2.682,0.92
			c0.65,0.614,0.975,1.377,0.975,2.289c0,0.52-0.093,1.014-0.279,1.482c-0.186,0.47-0.481,0.961-0.885,1.475
			c-0.267,0.341-0.75,0.831-1.447,1.471s-1.139,1.064-1.325,1.274s-0.337,0.414-0.452,0.613H133.076z"/>
	</g>
	<g>
		<path d="M108.061,153.536v7.844h9.068v-7.844h2.448v18.748h-2.448v-8.79h-9.068v8.79h-2.448v-18.748H108.061z"/>
	</g>
</g>
<g>
	<g>
		<path d="M172.212,179.178l2.139-0.26c0.068,0.546,0.252,0.963,0.551,1.251s0.661,0.433,1.085,0.433c0.456,0,0.84-0.173,1.152-0.52
			c0.312-0.346,0.468-0.812,0.468-1.399c0-0.556-0.149-0.996-0.448-1.321s-0.664-0.488-1.093-0.488
			c-0.283,0-0.622,0.056-1.015,0.166l0.244-1.802c0.598,0.016,1.054-0.113,1.369-0.389s0.472-0.642,0.472-1.098
			c0-0.388-0.115-0.697-0.346-0.928c-0.231-0.23-0.538-0.347-0.92-0.347c-0.377,0-0.7,0.132-0.967,0.394
			c-0.268,0.263-0.43,0.646-0.488,1.148l-2.037-0.346c0.141-0.697,0.355-1.255,0.641-1.672s0.685-0.744,1.196-0.982
			c0.511-0.239,1.084-0.358,1.718-0.358c1.085,0,1.956,0.346,2.611,1.038c0.54,0.566,0.81,1.206,0.81,1.919
			c0,1.013-0.553,1.819-1.66,2.423c0.661,0.142,1.189,0.459,1.585,0.951c0.396,0.493,0.594,1.088,0.594,1.785
			c0,1.013-0.37,1.875-1.109,2.588c-0.74,0.713-1.66,1.069-2.761,1.069c-1.043,0-1.909-0.3-2.595-0.9
			C172.721,180.933,172.323,180.148,172.212,179.178z"/>
	</g>
	<g>
		<path d="M156.458,154.285v7.018h8.113v-7.018h2.19v16.773h-2.19v-7.864h-8.113v7.864h-2.19v-16.773H156.458z"/>
	</g>
</g>
<g>
	<g>
		<path d="M223.768,181.012v-2.32h-4.719v-1.935l5.002-7.322h1.856v7.314h1.431v1.942h-1.431v2.32H223.768z M223.768,176.749v-3.94
			l-2.65,3.94H223.768z"/>
	</g>
	<g>
		<path d="M205.32,155.034v6.191h7.158v-6.191h1.932v14.799h-1.932v-6.938h-7.158v6.938h-1.932v-14.799H205.32z"/>
	</g>
</g>
<g>
	<g>
		<path d="M266.556,177.128l2.202-0.229c0.063,0.498,0.249,0.893,0.558,1.184c0.31,0.291,0.666,0.437,1.07,0.437
			c0.461,0,0.852-0.188,1.172-0.562c0.32-0.374,0.479-0.939,0.479-1.694c0-0.708-0.158-1.239-0.476-1.593s-0.73-0.531-1.239-0.531
			c-0.634,0-1.203,0.281-1.707,0.842l-1.793-0.26l1.133-6.001h5.843v2.069h-4.168l-0.346,1.958c0.493-0.246,0.996-0.37,1.51-0.37
			c0.98,0,1.811,0.357,2.493,1.07c0.681,0.713,1.022,1.639,1.022,2.776c0,0.948-0.275,1.796-0.826,2.54
			c-0.75,1.018-1.791,1.525-3.122,1.525c-1.064,0-1.932-0.285-2.604-0.857C267.088,178.86,266.687,178.093,266.556,177.128z"/>
	</g>
	<g>
		<path d="M253.519,155.585v5.577h6.447v-5.577h1.74v13.329h-1.74v-6.249h-6.447v6.249h-1.74v-13.329H253.519z"/>
	</g>
</g>
<g>
	<g>
		<path d="M321.475,170.467l-2.139,0.235c-0.052-0.44-0.188-0.766-0.409-0.975c-0.22-0.21-0.506-0.315-0.857-0.315
			c-0.467,0-0.861,0.21-1.184,0.63c-0.323,0.419-0.526,1.292-0.609,2.619c0.55-0.65,1.234-0.976,2.052-0.976
			c0.923,0,1.713,0.352,2.372,1.054c0.658,0.703,0.987,1.61,0.987,2.722c0,1.18-0.346,2.126-1.038,2.839
			c-0.692,0.713-1.581,1.069-2.666,1.069c-1.164,0-2.121-0.452-2.871-1.356c-0.75-0.904-1.125-2.387-1.125-4.447
			c0-2.113,0.391-3.637,1.172-4.569c0.781-0.934,1.796-1.4,3.044-1.4c0.875,0,1.601,0.245,2.174,0.735
			C320.952,168.821,321.318,169.533,321.475,170.467z M316.465,175.288c0,0.718,0.165,1.272,0.496,1.663
			c0.33,0.391,0.708,0.586,1.132,0.586c0.409,0,0.75-0.16,1.022-0.479c0.272-0.32,0.409-0.845,0.409-1.573
			c0-0.75-0.147-1.299-0.44-1.647c-0.294-0.349-0.661-0.523-1.101-0.523c-0.425,0-0.784,0.167-1.078,0.499
			C316.612,174.146,316.465,174.638,316.465,175.288z"/>
	</g>
	<g>
		<path d="M302.821,156.146v4.957h5.73v-4.957h1.547v11.848h-1.547v-5.555h-5.73v5.555h-1.547v-11.848H302.821z"/>
	</g>
</g>
</svg>
