<?xml version="1.0" encoding="utf-8"?>
<!-- Generator: Adobe Illustrator 17.0.0, SVG Export Plug-In . SVG Version: 6.00 Build 0)  -->
<!DOCTYPE svg PUBLIC "-//W3C//DTD SVG 1.1//EN" "http://www.w3.org/Graphics/SVG/1.1/DTD/svg11.dtd">
<svg version="1.1" id="icons" xmlns="http://www.w3.org/2000/svg" xmlns:xlink="http://www.w3.org/1999/xlink" x="0px" y="0px"
	 width="35px" height="35px" viewBox="0 0 35 35" enable-background="new 0 0 35 35" xml:space="preserve">
<g id="text_x5F_underline">
	<polygon points="8.25,27.866 8.25,28.866 28.25,28.866 28.25,27.866 28.25,26.866 8.25,26.866 	"/>
	<path d="M8.25,4.866v5c0,0,0,0,0.996,0c0.004-2,1.233-3,3.004-3h4v16c0,1-2,1-3,1c0,1,0,1,0,1h10c0,0,0,0,0-1c-1,0-3,0-3-1v-16h4
		c1.77,0,3,1,3.004,3c0.996,0,0.996,0,0.996,0v-5C28.25,4.866,8.25,4.866,8.25,4.866z"/>
</g>
</svg>
