<?xml version="1.0" encoding="utf-8"?>
<!-- Generator: Adobe Illustrator 17.0.0, SVG Export Plug-In . SVG Version: 6.00 Build 0)  -->
<!DOCTYPE svg PUBLIC "-//W3C//DTD SVG 1.1//EN" "http://www.w3.org/Graphics/SVG/1.1/DTD/svg11.dtd">
<svg version="1.1" id="icons" xmlns="http://www.w3.org/2000/svg" xmlns:xlink="http://www.w3.org/1999/xlink" x="0px" y="0px"
	 width="35px" height="35px" viewBox="0 0 35 35" enable-background="new 0 0 35 35" xml:space="preserve">
<g id="XMLID_6_" opacity="0.5">
	<path d="M26.296,25.095v1.271h-8c0,0,0-0.682,0-1.271c1.438,0,1.922-1.479,1.533-2.534c-0.283-0.773-1.58-4.258-1.58-4.258h-7.5
		c0,0-1.101,2.791-1.762,4.505c-0.66,1.714,0.887,2.287,2.309,2.287c0,0.802,0,1.271,0,1.271h-7v-1.271c0,0,1.078-0.46,1.608-0.988
		c0.53-0.528,0.991-1.438,0.991-1.438l7.663-19.304h1.785l7.384,19.139c0,0,0.385,0.967,1.151,1.773
		C25.646,25.085,26.296,25.095,26.296,25.095z M17.778,16.366l-2.224-6.073l-0.876-2.687l-3.428,8.76H17.778z"/>
</g>
<g>
	<path d="M24.431,9.582l-1.152,3.49h-1.482l3.771-11.097h1.729l3.787,11.097h-1.531l-1.185-3.49H24.431z M28.07,8.462l-1.103-3.193
		c-0.23-0.725-0.396-1.384-0.56-2.025h-0.049c-0.148,0.642-0.329,1.334-0.543,2.009l-1.086,3.21h3.341V8.462z"/>
</g>
</svg>
