<?xml version="1.0" encoding="utf-8"?>
<!-- Generator: Adobe Illustrator 17.0.0, SVG Export Plug-In . SVG Version: 6.00 Build 0)  -->
<!DOCTYPE svg PUBLIC "-//W3C//DTD SVG 1.1//EN" "http://www.w3.org/Graphics/SVG/1.1/DTD/svg11.dtd">
<svg version="1.1" id="icons" xmlns="http://www.w3.org/2000/svg" xmlns:xlink="http://www.w3.org/1999/xlink" x="0px" y="0px"
	 width="35px" height="35px" viewBox="0 0 35 35" enable-background="new 0 0 35 35" xml:space="preserve">
<g>
	<path fill="none" stroke="#000000" stroke-width="2.5" stroke-miterlimit="10" d="M17.608,21.847l-6.218,5.368
		c-1.057,0.912-2.653,0.795-3.565-0.261l-1.652-1.913c-0.912-1.057-0.795-2.653,0.261-3.565l8.609-7.433
		c1.057-0.912,2.653-0.795,3.565,0.261l1.239,1.435"/>
	<path fill="none" stroke="#000000" stroke-width="2.5" stroke-miterlimit="10" d="M18.392,11.153l6.218-5.368
		c1.057-0.912,2.653-0.795,3.565,0.261l1.652,1.913c0.912,1.057,0.795,2.653-0.261,3.565l-8.609,7.433
		c-1.057,0.912-2.653,0.795-3.565-0.261l-1.239-1.435"/>
</g>
</svg>
