<?xml version="1.0" encoding="utf-8"?>
<!-- Generator: Adobe Illustrator 17.0.0, SVG Export Plug-In . SVG Version: 6.00 Build 0)  -->
<!DOCTYPE svg PUBLIC "-//W3C//DTD SVG 1.1//EN" "http://www.w3.org/Graphics/SVG/1.1/DTD/svg11.dtd">
<svg version="1.1" id="icons" xmlns="http://www.w3.org/2000/svg" xmlns:xlink="http://www.w3.org/1999/xlink" x="0px" y="0px"
	 width="35px" height="35px" viewBox="0 0 35 35" enable-background="new 0 0 35 35" xml:space="preserve">
<g id="align_x5F_left_2_">
	<path d="M24.487,20.938c0,0.275-0.225,0.5-0.5,0.5H7c-0.275,0-0.5-0.225-0.5-0.5v-2c0-0.275,0.225-0.5,0.5-0.5h16.987
		c0.275,0,0.5,0.225,0.5,0.5V20.938z M28.487,12.938c0-0.275-0.225-0.5-0.5-0.5H7c-0.275,0-0.5,0.225-0.5,0.5v2
		c0,0.275,0.225,0.5,0.5,0.5h20.987c0.275,0,0.5-0.225,0.5-0.5V12.938z M20.487,6.938c0-0.275-0.225-0.5-0.5-0.5H7
		c-0.275,0-0.5,0.225-0.5,0.5v2c0,0.275,0.225,0.5,0.5,0.5h12.987c0.275,0,0.5-0.225,0.5-0.5V6.938z M30.5,24.938
		c0-0.275-0.225-0.5-0.5-0.5H7c-0.275,0-0.5,0.225-0.5,0.5v2c0,0.275,0.225,0.5,0.5,0.5h23c0.275,0,0.5-0.225,0.5-0.5V24.938z"/>
</g>
</svg>
