<?xml version="1.0" encoding="utf-8"?>
<!-- Generator: Adobe Illustrator 17.0.0, SVG Export Plug-In . SVG Version: 6.00 Build 0)  -->
<!DOCTYPE svg PUBLIC "-//W3C//DTD SVG 1.1//EN" "http://www.w3.org/Graphics/SVG/1.1/DTD/svg11.dtd">
<svg version="1.1" id="icons" xmlns="http://www.w3.org/2000/svg" xmlns:xlink="http://www.w3.org/1999/xlink" x="0px" y="0px"
	 width="35px" height="35px" viewBox="0 0 35 35" enable-background="new 0 0 35 35" xml:space="preserve">
<path d="M31.527,26.483c0,0.318-0.259,0.577-0.577,0.577H10.173c-0.318,0-0.577-0.259-0.577-0.577v-2.308
	c0-0.318,0.259-0.577,0.577-0.577H30.95c0.318,0,0.577,0.259,0.577,0.577V26.483z"/>
<path d="M31.527,16.095c0-0.318-0.259-0.577-0.577-0.577H10.173c-0.318,0-0.577,0.259-0.577,0.577v2.308
	c0,0.318,0.259,0.577,0.577,0.577H30.95c0.318,0,0.577-0.259,0.577-0.577V16.095z"/>
<path d="M31.527,8.015c0-0.318-0.259-0.577-0.577-0.577H10.173c-0.318,0-0.577,0.259-0.577,0.577v2.308
	c0,0.318,0.259,0.577,0.577,0.577H30.95c0.318,0,0.577-0.259,0.577-0.577V8.015z"/>
<g>
	<path d="M6.5,18.852v1.02H2.653c0.042-0.386,0.167-0.751,0.375-1.096s0.62-0.803,1.234-1.373c0.495-0.461,0.798-0.773,0.91-0.938
		c0.151-0.227,0.227-0.45,0.227-0.672c0-0.245-0.066-0.433-0.197-0.564s-0.313-0.197-0.545-0.197c-0.229,0-0.412,0.069-0.547,0.207
		c-0.135,0.138-0.213,0.367-0.234,0.688l-1.094-0.109c0.065-0.604,0.27-1.038,0.613-1.301s0.773-0.395,1.289-0.395
		c0.565,0,1.009,0.152,1.332,0.457S6.5,15.262,6.5,15.715c0,0.258-0.046,0.503-0.139,0.736s-0.239,0.478-0.439,0.732
		c-0.133,0.169-0.373,0.413-0.719,0.73s-0.566,0.528-0.658,0.633s-0.167,0.206-0.225,0.305L6.5,18.852L6.5,18.852z"/>
</g>
<g>
	<path d="M5.537,12.327H4.439V8.19C4.038,8.565,3.565,8.843,3.021,9.022V8.026c0.287-0.094,0.598-0.271,0.934-0.533
		s0.566-0.567,0.691-0.916h0.891C5.537,6.577,5.537,12.327,5.537,12.327z"/>
</g>
<g>
	<path d="M2.828,26.172l1.062-0.129c0.034,0.271,0.125,0.478,0.273,0.621s0.328,0.215,0.539,0.215c0.227,0,0.417-0.086,0.572-0.258
		s0.232-0.403,0.232-0.695c0-0.276-0.074-0.495-0.223-0.656s-0.33-0.242-0.543-0.242c-0.141,0-0.309,0.027-0.504,0.082l0.121-0.895
		c0.297,0.008,0.523-0.057,0.68-0.193s0.234-0.318,0.234-0.545c0-0.192-0.057-0.347-0.172-0.461s-0.267-0.172-0.457-0.172
		c-0.188,0-0.348,0.065-0.48,0.195s-0.213,0.32-0.242,0.57l-1.01-0.171c0.07-0.347,0.176-0.623,0.318-0.83s0.34-0.37,0.594-0.488
		s0.539-0.178,0.854-0.178c0.539,0,0.971,0.172,1.297,0.516c0.268,0.281,0.402,0.599,0.402,0.953c0,0.503-0.275,0.903-0.824,1.203
		c0.328,0.07,0.59,0.228,0.787,0.473s0.295,0.54,0.295,0.887c0,0.503-0.184,0.931-0.551,1.285S5.258,27.79,4.711,27.79
		c-0.518,0-0.948-0.149-1.289-0.447S2.882,26.653,2.828,26.172z"/>
</g>
</svg>
