<?xml version="1.0" encoding="utf-8"?>
<!-- Generator: Adobe Illustrator 17.0.0, SVG Export Plug-In . SVG Version: 6.00 Build 0)  -->
<!DOCTYPE svg PUBLIC "-//W3C//DTD SVG 1.1//EN" "http://www.w3.org/Graphics/SVG/1.1/DTD/svg11.dtd">
<svg version="1.1" id="icons" xmlns="http://www.w3.org/2000/svg" xmlns:xlink="http://www.w3.org/1999/xlink" x="0px" y="0px"
	 width="35px" height="35px" viewBox="0 0 35 35" enable-background="new 0 0 35 35" xml:space="preserve">
<g>
	<g>
		<g>
			<g>
				
					<line fill="none" stroke="#000000" stroke-width="2" stroke-linecap="round" stroke-linejoin="round" stroke-miterlimit="10" x1="16.237" y1="7.043" x2="12.237" y2="9.465"/>
				
					<line fill="none" stroke="#000000" stroke-width="2" stroke-linecap="round" stroke-linejoin="round" stroke-miterlimit="10" x1="12.237" y1="9.465" x2="12.237" y2="25.015"/>
				
					<line fill="none" stroke="#000000" stroke-width="2" stroke-linecap="round" stroke-linejoin="round" stroke-miterlimit="10" x1="12.237" y1="25.015" x2="16.237" y2="27.719"/>
				
					<line fill="none" stroke="#000000" stroke-width="2" stroke-linecap="round" stroke-linejoin="round" stroke-miterlimit="10" x1="8.237" y1="7.043" x2="12.237" y2="9.465"/>
				
					<line fill="none" stroke="#000000" stroke-width="2" stroke-linecap="round" stroke-linejoin="round" stroke-miterlimit="10" x1="12.237" y1="25.015" x2="8.237" y2="27.719"/>
			</g>
			<polygon points="21.616,12.776 17.725,12.776 17.725,14.406 21.616,14.406 21.616,17.668 27.051,13.591 21.616,9.515 			"/>
		</g>
	</g>
	<g>
		<path d="M26.158,27.764c-0.488,0.415-0.958,0.708-1.41,0.879c-0.452,0.17-0.936,0.256-1.454,0.256
			c-0.854,0-1.511-0.209-1.97-0.626c-0.459-0.418-0.688-0.951-0.688-1.601c0-0.381,0.086-0.729,0.26-1.044
			c0.173-0.314,0.4-0.567,0.682-0.758c0.28-0.19,0.597-0.334,0.948-0.433c0.259-0.067,0.649-0.134,1.172-0.197
			c1.064-0.127,1.848-0.278,2.351-0.454c0.005-0.181,0.007-0.295,0.007-0.345c0-0.536-0.125-0.915-0.374-1.135
			c-0.337-0.298-0.837-0.447-1.501-0.447c-0.62,0-1.078,0.109-1.373,0.326c-0.296,0.218-0.514,0.603-0.656,1.154l-1.289-0.176
			c0.117-0.552,0.31-0.998,0.579-1.337c0.269-0.34,0.657-0.601,1.165-0.784s1.096-0.274,1.765-0.274
			c0.664,0,1.204,0.078,1.619,0.234s0.72,0.353,0.916,0.59c0.195,0.236,0.332,0.536,0.41,0.897c0.044,0.225,0.066,0.629,0.066,1.215
			v1.758c0,1.227,0.028,2.001,0.084,2.326c0.056,0.324,0.167,0.636,0.333,0.934h-1.377C26.285,28.449,26.197,28.129,26.158,27.764z
			 M26.048,24.818c-0.479,0.196-1.196,0.362-2.153,0.498c-0.542,0.079-0.925,0.167-1.15,0.264c-0.225,0.099-0.398,0.241-0.52,0.429
			c-0.122,0.188-0.183,0.397-0.183,0.626c0,0.352,0.133,0.645,0.399,0.879s0.655,0.352,1.168,0.352c0.508,0,0.959-0.11,1.355-0.333
			c0.396-0.222,0.686-0.525,0.872-0.911c0.142-0.298,0.212-0.737,0.212-1.318C26.048,25.304,26.048,24.818,26.048,24.818z"/>
	</g>
</g>
</svg>
